<?xml version="1.0" standalone="no"?>
<!DOCTYPE svg PUBLIC "-//W3C//DTD SVG 20010904//EN"
 "http://www.w3.org/TR/2001/REC-SVG-20010904/DTD/svg10.dtd">
<svg version="1.0" xmlns="http://www.w3.org/2000/svg"
 width="1024.000000pt" height="1024.000000pt" viewBox="0 0 1024.000000 1024.000000"
 preserveAspectRatio="xMidYMid meet">

<g transform="translate(0.000000,1024.000000) scale(0.100000,-0.100000)"
fill="#000000" stroke="none">
<path d="M0 7727 l0 -2514 29 -69 c42 -101 63 -144 71 -139 5 3 133 -190 136
-205 3 -16 118 -246 146 -292 18 -29 40 -66 48 -82 8 -16 20 -29 25 -30 6 -1
31 -26 56 -56 106 -127 416 -410 449 -410 19 0 100 -62 94 -72 -3 -5 0 -7 7
-6 7 2 13 -3 14 -11 0 -8 6 -16 14 -19 9 -3 11 0 5 9 -6 11 -3 10 11 -1 37
-28 70 -60 63 -60 -13 0 -114 58 -174 99 -33 23 -64 41 -70 41 -6 0 -17 7 -24
16 -8 8 -23 20 -34 26 -16 8 -14 3 9 -22 l30 -33 -30 21 c-16 12 -43 32 -60
44 -28 21 -27 19 9 -27 39 -50 39 -50 5 -18 -23 22 -39 29 -48 24 -10 -7 -11
-13 -1 -31 6 -12 9 -27 7 -35 -3 -7 8 -25 24 -41 31 -29 41 -56 12 -33 -14 12
-14 9 3 -19 10 -19 32 -43 47 -54 16 -11 26 -22 23 -25 -8 -8 -50 19 -106 71
-30 28 -44 38 -30 22 22 -26 23 -28 5 -22 -11 4 9 -22 45 -58 74 -75 78 -88 6
-21 -26 25 -52 43 -57 40 -17 -11 -252 237 -344 363 -166 226 -351 536 -400
669 -12 33 -14 -173 -14 -1497 l-1 -1534 58 94 c92 151 168 261 211 310 23 25
41 48 41 52 0 4 16 15 36 24 20 9 59 38 87 63 29 26 79 69 112 96 66 55 74 63
93 87 12 15 11 17 -5 13 -129 -26 -183 -51 -275 -127 -35 -28 -66 -56 -69 -61
-3 -5 -9 1 -12 14 -4 15 3 33 21 58 15 20 30 37 34 39 4 2 24 27 45 55 65 89
113 126 243 189 36 17 85 47 109 65 43 32 68 43 56 23 -12 -19 13 -10 43 15
56 47 167 74 348 84 l112 6 -17 35 -17 35 -121 -2 c-67 0 -156 -8 -198 -17
-91 -19 -95 -19 -75 -5 12 9 11 10 -7 6 -13 -3 -25 -2 -28 3 -13 21 206 59
363 62 89 1 102 4 97 17 -4 9 -9 88 -12 176 -3 88 -9 165 -14 171 -5 6 -4 48
1 95 5 46 10 90 10 97 0 17 20 15 58 -5 l32 -18 5 -225 c3 -124 9 -245 13
-270 6 -40 11 -46 47 -59 22 -8 42 -18 45 -21 11 -15 102 -60 119 -60 10 0 24
-7 31 -15 7 -9 19 -14 27 -11 7 3 28 -3 46 -14 39 -24 14 -27 -39 -5 -20 8
-39 13 -43 11 -8 -5 -39 2 -166 38 -101 29 -109 30 -100 16 4 -6 9 -9 13 -7 4
2 17 -7 29 -20 21 -22 21 -23 3 -23 -11 0 -20 -5 -20 -11 0 -6 7 -9 15 -5 8 3
14 0 12 -6 -1 -6 32 -25 73 -42 104 -43 126 -56 110 -66 -9 -6 -7 -11 8 -19
11 -6 30 -26 41 -45 12 -18 42 -50 68 -70 50 -39 47 -44 -15 -22 -54 19 -61 8
-13 -23 21 -14 51 -38 66 -54 27 -26 27 -28 11 -46 -25 -28 -57 -33 -112 -16
-26 8 -50 12 -53 10 -2 -3 1 -16 7 -30 7 -14 12 -33 12 -41 0 -8 11 -32 25
-53 13 -22 46 -81 73 -133 27 -51 64 -120 82 -153 49 -87 15 -52 -75 77 -89
128 -99 142 -89 113 9 -26 93 -154 116 -177 9 -9 44 -58 78 -108 34 -50 64
-89 67 -86 3 3 -2 17 -11 31 -34 52 -6 22 40 -42 27 -38 81 -102 121 -144 40
-42 73 -80 73 -85 0 -12 103 -114 115 -114 5 0 -9 19 -30 42 -29 31 -23 27 24
-15 62 -55 98 -75 70 -40 -8 10 4 4 26 -13 81 -63 269 -176 347 -209 l38 -15
-24 62 c-13 35 -50 117 -82 183 -73 149 -72 147 -39 105 15 -19 25 -27 21 -17
-3 11 -9 31 -13 45 -6 26 -5 27 14 9 11 -9 22 -15 24 -12 3 2 29 -34 59 -80
74 -114 85 -128 59 -75 -18 37 -19 42 -5 31 10 -8 24 -28 32 -44 9 -16 18 -27
20 -24 3 3 -18 49 -46 103 -27 54 -48 103 -46 109 2 5 5 2 5 -7 1 -10 6 -18
11 -18 7 0 6 8 -2 23 -7 12 -11 26 -10 30 1 4 -10 27 -25 50 -16 23 -37 60
-48 82 -11 22 -32 53 -48 68 -15 16 -24 33 -21 38 3 6 -1 21 -10 34 -9 13 -16
28 -16 32 0 4 11 -9 25 -30 14 -20 23 -42 19 -49 -4 -6 -3 -8 3 -5 6 4 20 -8
32 -26 35 -54 23 -22 -14 40 -19 32 -35 62 -35 66 0 10 36 -32 75 -88 25 -36
27 -34 9 10 -3 8 -2 15 4 15 10 0 43 -48 137 -195 20 -33 52 -73 69 -88 22
-21 26 -27 11 -22 -16 5 -14 0 10 -26 28 -30 29 -31 5 -19 l-25 13 19 -22 c19
-21 19 -21 1 -15 -43 17 1 -17 120 -91 69 -43 131 -85 138 -94 14 -17 9 -14
-88 47 -116 73 -121 75 -66 24 63 -58 141 -103 169 -97 20 3 38 -12 93 -77 17
-21 36 -36 42 -35 6 1 11 -5 12 -13 0 -9 40 -56 88 -105 49 -50 84 -80 78 -68
-6 12 -16 25 -21 28 -6 4 -8 15 -5 26 4 11 2 19 -5 19 -8 0 -10 9 -6 23 7 31
-59 115 -156 197 -99 85 -103 89 -32 42 34 -22 92 -71 130 -109 37 -37 60 -58
49 -45 -10 12 -15 22 -12 22 10 0 97 -92 130 -137 17 -24 34 -43 38 -43 14 0
289 -363 289 -381 0 -5 -7 -9 -15 -9 -8 0 -15 -4 -15 -10 0 -5 4 -10 10 -10 5
0 14 -9 20 -20 15 -27 -4 -26 -30 2 l-22 23 12 -26 c6 -14 29 -36 51 -49 24
-15 35 -28 29 -34 -6 -6 -23 2 -46 19 -31 24 -36 25 -30 9 48 -120 97 -297
112 -401 l17 -123 544 0 544 0 -17 32 c-9 17 -34 60 -56 96 -21 35 -37 67 -33
70 9 10 32 -19 83 -108 l49 -85 1026 0 1027 0 37 78 c31 66 35 81 25 98 -18
29 -15 57 18 153 30 90 108 245 162 324 53 76 145 182 315 360 173 181 327
307 470 387 l73 40 0 90 c0 88 23 281 34 292 14 14 36 -9 36 -38 0 -26 3 -30
18 -24 9 4 32 13 51 20 19 7 38 22 42 32 11 30 39 38 39 12 0 -16 4 -19 18
-14 33 13 165 45 187 45 21 0 21 -1 8 -97 -13 -106 -3 -407 16 -471 14 -48 23
-56 150 -139 120 -79 164 -111 271 -204 87 -75 241 -189 315 -234 77 -46 184
-80 338 -105 154 -26 167 -31 167 -69 0 -55 -85 -101 -215 -115 -118 -13 -192
15 -515 194 -138 77 -322 170 -336 170 -23 0 65 -286 132 -427 48 -101 55
-153 29 -204 -10 -19 -15 -51 -13 -94 l3 -65 638 0 637 0 -2 1893 c-1 1040 -3
1870 -5 1842 -2 -27 -7 -59 -12 -70 -27 -59 -42 -135 -16 -80 l14 30 -6 -30
c-19 -89 -145 -376 -201 -457 -16 -24 -54 -81 -84 -128 -152 -234 -393 -463
-702 -664 -81 -53 -146 -100 -142 -103 3 -4 12 -1 18 5 17 17 31 15 24 -4 -5
-13 -2 -15 14 -11 11 3 20 0 20 -5 0 -6 6 -5 15 2 9 7 18 10 22 6 3 -3 1 -6
-5 -6 -13 0 -48 -68 -39 -76 8 -8 44 13 88 53 48 44 52 29 4 -17 -19 -19 -35
-39 -35 -46 0 -6 -7 -17 -15 -24 -10 -9 -12 -16 -5 -25 6 -8 6 -15 -2 -23 -14
-14 -38 -16 -38 -2 0 6 -9 6 -25 0 -28 -11 -47 -10 -56 3 -3 4 -17 4 -30 -1
-40 -15 -106 -24 -89 -13 30 21 -44 11 -115 -15 -38 -14 -104 -37 -145 -52
-41 -14 -67 -28 -57 -30 19 -4 23 -17 7 -27 -5 -3 -61 -15 -122 -26 -168 -28
-481 -49 -776 -51 l-262 -1 -59 -96 c-57 -92 -180 -238 -181 -215 0 6 9 19 21
30 12 10 30 33 42 49 11 17 -1 8 -26 -20 -25 -27 -44 -55 -42 -61 5 -16 -41
-58 -55 -49 -6 3 -9 2 -8 -3 3 -9 -126 -133 -217 -208 -86 -71 -258 -181 -386
-248 -142 -73 -258 -118 -444 -172 -71 -20 -132 -40 -135 -43 -5 -6 -16 -8
-100 -15 -30 -2 -116 -10 -190 -16 -388 -35 -821 48 -1185 225 -264 129 -437
258 -683 509 -288 295 -512 620 -647 936 -20 47 -43 97 -51 113 -8 15 -12 32
-9 37 3 6 1 10 -4 10 -6 0 -11 11 -11 24 0 13 -4 26 -8 28 -25 9 -130 683
-148 941 -7 111 11 341 27 331 11 -6 17 23 23 127 3 47 8 101 11 120 2 21 -1
15 -9 -16 -17 -61 -20 -36 -5 36 8 37 14 48 20 38 6 -9 8 0 4 26 -5 30 -4 36
4 25 8 -12 11 -5 11 27 0 36 -3 42 -17 37 -10 -3 -7 1 7 9 14 8 65 24 115 37
91 22 136 39 104 40 -8 0 -48 -8 -87 -19 -40 -10 -72 -15 -72 -10 0 5 -10 3
-23 -6 -45 -29 -454 -73 -469 -51 -5 7 -8 7 -8 -2 0 -10 -22 -12 -96 -8 -60 3
-93 1 -88 -4 5 -5 56 -11 112 -12 56 -2 102 -6 102 -10 0 -12 -114 -9 -208 5
-65 10 -80 15 -70 25 7 7 45 13 97 13 l86 2 -95 8 c-52 5 -147 11 -210 13
-168 6 -345 51 -465 120 -39 22 -18 17 140 -37 131 -45 261 -75 272 -63 4 3
-3 6 -13 6 -106 0 -556 183 -647 263 -27 23 -23 22 26 -8 94 -58 200 -105 225
-98 13 3 22 1 22 -6 0 -5 -8 -8 -17 -5 -60 17 106 -51 184 -76 178 -57 451
-87 643 -71 307 26 560 67 560 92 0 6 -9 8 -19 4 -11 -3 -28 -8 -38 -10 -10
-2 -29 -8 -43 -13 -17 -7 -47 -6 -95 4 -90 17 -312 0 -333 -25 -10 -12 -15
-13 -18 -3 -4 9 -41 12 -134 12 -72 0 -131 4 -135 10 -3 5 -19 7 -35 3 -17 -3
-36 -1 -42 4 -7 6 -38 13 -68 17 -113 13 -218 45 -393 122 -54 24 -106 45
-115 46 -9 2 -20 8 -24 13 -4 6 -11 10 -16 10 -4 0 -53 29 -107 65 -55 35
-111 70 -125 77 -40 21 -236 186 -340 286 -52 51 -83 79 -70 63 21 -24 22 -27
5 -18 -55 29 -308 337 -409 497 -19 29 -19 30 0 14 19 -16 54 -22 54 -9 0 3
-7 15 -16 26 -14 18 -15 18 -8 -6 l6 -25 -21 27 c-11 14 -21 28 -21 31 0 3
-18 36 -40 73 -41 70 -48 90 -29 78 6 -3 3 9 -6 27 -20 38 -32 53 -22 27 18
-48 17 -51 -7 -23 -14 17 -25 26 -26 22 0 -10 47 -98 75 -141 10 -15 16 -28
14 -31 -8 -8 -87 121 -114 184 -14 35 -29 82 -31 105 -3 23 -21 102 -41 176
-53 201 -62 247 -65 335 l-2 80 -6 -75 -6 -75 -2 75 c-2 108 44 444 78 570 16
57 3 -54 -22 -200 -38 -216 -28 -501 22 -615 5 -11 14 -47 20 -80 12 -62 50
-189 55 -183 2 2 -9 53 -25 113 -15 61 -34 142 -43 180 -19 84 -32 231 -18
200 7 -14 10 25 11 125 1 80 6 174 10 210 l7 65 3 -60 c2 -33 5 -46 6 -30 2
17 9 72 15 123 9 79 22 139 56 257 4 15 2 17 -6 9 -7 -6 -14 -22 -16 -35 -3
-13 -16 -46 -30 -74 l-26 -50 7 45 c3 25 12 60 20 78 7 18 11 39 7 48 -3 9 0
14 7 12 7 -2 29 29 49 67 20 39 39 72 42 75 3 3 13 25 23 50 24 63 133 268
163 308 13 17 22 32 19 32 -3 0 8 13 24 29 17 15 30 34 30 42 0 8 -8 4 -20
-11 -11 -14 -20 -20 -20 -15 0 14 27 53 64 93 23 24 27 35 18 41 -9 5 6 29 51
82 73 85 225 229 241 228 6 0 5 -3 -2 -6 -6 -2 -12 -9 -12 -14 0 -5 25 11 55
35 169 138 480 308 685 375 291 94 435 121 685 128 266 8 450 -19 765 -113 47
-14 101 -30 120 -35 19 -6 77 -31 129 -56 52 -26 100 -46 107 -46 7 0 11 -4 8
-9 -3 -4 1 -9 8 -10 7 0 18 -2 24 -2 6 -1 19 -9 28 -19 10 -9 22 -15 27 -12 5
4 14 1 21 -5 7 -6 40 -28 73 -49 33 -21 104 -72 158 -114 54 -43 102 -77 106
-77 17 0 266 -255 327 -335 85 -111 180 -261 245 -385 30 -58 56 -107 59 -110
3 -3 7 -14 8 -25 2 -11 10 -32 18 -46 21 -42 52 -165 79 -323 14 -81 25 -152
25 -157 0 -5 11 -2 24 8 37 28 39 87 6 222 -73 296 -215 586 -397 811 -85 104
-341 353 -443 430 -358 271 -763 441 -1195 502 -114 16 -441 15 -565 -1 -345
-46 -713 -184 -995 -374 -72 -48 -190 -137 -225 -168 -62 -55 -71 -59 -19 -8
141 139 409 309 631 399 31 13 54 28 51 33 -3 6 -1 7 5 3 7 -4 62 9 124 29
246 80 388 104 658 112 150 4 224 1 320 -11 264 -35 494 -101 731 -210 l136
-63 66 131 c153 306 306 496 573 710 182 146 460 314 664 401 187 80 424 151
635 190 50 9 97 20 105 23 8 3 20 7 25 7 6 1 17 5 25 8 21 8 159 24 335 39
190 16 684 15 835 -1 116 -12 371 -60 561 -105 103 -25 300 -89 329 -108 19
-12 16 -11 -98 27 -46 15 -85 25 -87 23 -3 -2 46 -21 108 -42 190 -64 519
-236 700 -367 70 -51 87 -56 40 -13 l-28 26 30 -20 c17 -11 39 -30 50 -43 l20
-24 -20 15 c-18 14 -19 14 -7 -2 8 -9 19 -15 26 -12 12 5 43 -23 46 -41 1 -5
7 -9 14 -7 17 3 159 -147 224 -237 95 -132 167 -298 196 -449 10 -51 16 -146
16 -260 l2 -180 66 -84 c128 -161 166 -222 280 -460 l70 -147 54 22 c29 12 56
26 59 30 3 4 0 49 -8 100 -7 51 -15 117 -18 147 l-5 55 20 -75 c11 -41 19 -82
18 -90 -3 -31 15 -110 27 -120 20 -17 24 19 8 79 -7 29 -20 115 -28 190 -9 75
-20 179 -26 231 -22 193 5 522 66 795 18 84 23 97 20 55 -4 -49 -3 -51 5 -20
6 19 10 57 11 84 1 36 4 45 11 35 8 -11 8 -9 4 5 -6 18 18 109 34 131 4 6 13
27 19 47 15 46 25 53 42 31 9 -10 9 -14 2 -10 -7 5 -16 -1 -22 -12 -16 -29
-13 -38 4 -15 13 17 13 13 0 -31 -8 -27 -13 -50 -11 -52 1 -2 13 17 26 42 22
43 24 44 42 28 21 -19 16 -32 -6 -14 -11 10 -18 -1 -39 -61 -28 -78 -78 -262
-76 -281 0 -7 7 6 15 28 7 22 11 28 9 13 -14 -76 -26 -181 -21 -185 2 -3 8 12
11 33 11 69 14 70 9 4 -18 -215 -24 -307 -24 -403 0 -89 3 -109 16 -114 12 -4
14 -14 10 -38 -12 -60 18 -413 40 -475 4 -11 7 -12 13 -1 5 8 10 -2 14 -29 6
-50 10 -54 35 -46 16 6 20 20 26 100 14 204 96 405 210 519 36 35 83 72 105
83 l41 19 0 81 c0 72 -4 91 -40 173 -48 114 -136 281 -191 364 -36 55 -37 58
-9 27 17 -19 28 -28 24 -20 -10 19 -127 202 -163 255 -15 22 -31 47 -35 55
-14 27 33 -33 95 -122 59 -87 91 -120 50 -54 -35 56 -24 54 16 -3 31 -44 38
-50 44 -34 3 10 3 25 -2 33 -12 23 -41 57 -34 40 4 -8 -5 -1 -19 15 -30 34
-34 54 -8 34 15 -13 16 -12 3 3 -7 10 -17 16 -21 13 -14 -9 -151 171 -144 189
6 15 40 -21 182 -190 33 -38 33 -38 11 -4 -27 43 -129 171 -147 185 -16 13
-26 65 -12 65 5 0 10 -6 10 -13 0 -8 44 -71 97 -140 123 -159 136 -175 127
-158 -5 10 -3 12 5 7 7 -5 10 -15 7 -23 -3 -8 -2 -11 4 -8 5 3 20 -11 34 -32
40 -58 31 -31 -14 42 -44 72 -52 95 -18 49 13 -16 34 -41 48 -55 14 -15 35
-42 48 -60 13 -19 29 -43 37 -54 13 -17 14 29 15 359 0 351 -1 378 -17 372
-15 -6 -15 -4 2 14 32 35 7 34 -37 -2 -24 -19 -56 -43 -73 -54 -26 -16 -28
-16 -16 -1 8 10 9 17 3 17 -6 0 -14 -4 -17 -10 -11 -17 -25 -11 -18 8 4 11 -7
5 -30 -15 -45 -40 -59 -41 -54 -8 3 26 125 150 136 139 3 -3 -17 -28 -46 -55
-82 -78 -51 -57 62 43 l105 93 -1 127 0 128 -600 0 c-398 0 -598 -3 -594 -10
9 -14 -8 -13 -23 2 -6 6 -14 9 -17 7 -2 -3 10 -13 27 -23 17 -11 28 -14 24 -7
-23 36 36 -8 159 -119 34 -30 79 -68 100 -85 22 -16 71 -57 110 -91 38 -33
108 -91 155 -130 155 -126 160 -132 148 -165 -5 -16 -8 -35 -5 -43 5 -13 -10
-36 -24 -36 -4 0 -43 28 -86 62 -85 69 -154 111 -98 61 17 -15 29 -31 27 -36
-1 -4 8 -17 20 -28 45 -39 -74 27 -137 76 -232 180 -455 341 -540 390 -55 32
-139 84 -188 116 l-87 59 -2838 -2 c-1560 -1 -2803 -3 -2762 -5 128 -5 270
-24 339 -45 65 -19 107 -42 60 -32 -20 5 -21 4 -9 -6 12 -9 11 -10 -6 -5 -106
29 -192 37 -404 36 -124 -1 -260 -6 -304 -12 -113 -15 -104 -5 13 14 66 11
168 18 298 19 l198 1 -190 10 c-267 14 -489 -1 -695 -48 -177 -40 -182 -42
-350 -102 -138 -49 -294 -124 -382 -184 -31 -22 -62 -39 -69 -39 -7 0 -10 -3
-6 -6 9 -9 132 34 210 73 37 18 67 31 67 28 0 -2 -33 -21 -72 -41 -40 -20 -85
-45 -100 -55 -14 -11 -37 -19 -50 -20 -12 0 -32 -5 -43 -10 -17 -8 -15 -8 8
-4 15 3 27 2 27 -2 0 -5 24 -34 53 -65 136 -144 189 -355 153 -606 -8 -62 -20
-121 -25 -130 -8 -12 -9 -6 -5 23 l4 40 -14 -35 c-19 -46 -19 -31 -1 59 29
135 6 310 -56 435 -59 118 -156 216 -214 216 -34 0 -158 -66 -205 -109 -26
-24 -49 -37 -58 -33 -10 3 -13 1 -8 -6 7 -11 -31 -38 -41 -29 -2 3 5 8 16 12
12 3 19 10 16 15 -3 5 21 26 52 48 114 75 187 132 170 132 -11 0 -82 -46 -177
-115 -47 -34 -101 -70 -120 -80 l-35 -17 38 34 c20 19 37 43 37 54 0 19 72 82
159 140 25 16 54 38 66 49 12 11 30 26 41 32 12 9 7 8 -16 -1 -83 -33 -138
-61 -180 -91 -49 -35 -90 -58 -90 -51 0 2 16 14 35 26 19 12 33 26 30 30 -9
14 81 70 147 92 34 12 80 33 102 48 63 43 282 155 368 189 85 35 317 103 330
99 5 -2 -55 -23 -134 -47 -79 -24 -179 -60 -223 -80 -83 -37 -275 -141 -309
-166 -24 -18 -15 -30 11 -17 137 70 403 190 493 222 97 35 331 97 420 113 14
2 -516 5 -1177 6 l-1203 1 0 -2513z m2227 2497 c-3 -3 -12 -4 -19 -1 -8 3 -5
6 6 6 11 1 17 -2 13 -5z m-60 -10 c-3 -3 -12 -4 -19 -1 -8 3 -5 6 6 6 11 1 17
-2 13 -5z m546 -11 c-7 -2 -19 -2 -25 0 -7 3 -2 5 12 5 14 0 19 -2 13 -5z
m6428 -10 c13 -16 12 -17 -3 -4 -10 7 -18 15 -18 17 0 8 8 3 21 -13z m-6518 0
c-13 -2 -35 -2 -50 0 -16 2 -5 4 22 4 28 0 40 -2 28 -4z m6702 -139 c50 -40
104 -87 120 -105 17 -18 3 -9 -30 20 -34 28 -103 82 -155 119 -51 37 -96 74
-98 81 -5 16 31 -10 163 -115z m-6785 76 c-47 -10 -92 -19 -100 -20 -10 -1 -9
-4 5 -10 23 -10 5 -13 -20 -4 -13 6 -14 9 -3 16 8 6 -2 8 -29 4 -102 -14 -123
-14 -58 -1 39 8 81 17 95 20 19 4 21 3 10 -5 -20 -13 -4 -12 55 4 28 8 68 14
90 14 30 0 20 -4 -45 -18z m343 3 c-18 -2 -48 -2 -65 0 -18 2 -4 4 32 4 36 0
50 -2 33 -4z m7277 -27 c0 -3 -28 -25 -62 -50 -90 -63 -230 -213 -223 -236 3
-10 1 -21 -5 -25 -13 -8 -25 20 -16 38 19 35 36 61 36 54 0 -5 17 13 38 40 42
52 142 146 149 139 3 -2 21 7 40 20 36 24 43 27 43 20z m-7907 -13 c-7 -2 -19
-2 -25 0 -7 3 -2 5 12 5 14 0 19 -2 13 -5z m-1015 -99 c31 -9 28 -24 -5 -24
-50 0 -132 -48 -197 -112 -76 -78 -125 -170 -176 -331 -21 -67 -42 -131 -46
-141 -5 -13 -4 -17 3 -13 17 11 23 -20 7 -34 -9 -7 -22 -26 -31 -43 -14 -26
-17 -28 -22 -13 -5 14 -29 -17 -98 -125 -98 -155 -207 -342 -222 -379 -5 -13
-34 -67 -65 -119 -40 -67 -70 -135 -100 -230 -51 -159 -62 -205 -48 -196 7 4
8 -4 2 -26 -10 -34 -12 -47 -30 -163 -11 -70 -19 -94 -21 -59 -1 48 -19 -31
-25 -116 -4 -49 -10 -87 -15 -85 -4 3 -12 -7 -17 -22 -19 -50 -13 142 7 272
43 272 94 457 156 560 71 119 107 187 109 208 3 30 75 170 231 447 95 171 133
249 157 325 33 108 88 226 136 292 70 95 212 153 310 127z m8812 -14 c-6 -11
-15 -20 -20 -20 -6 0 -37 -27 -70 -61 -56 -57 -73 -78 -50 -64 6 4 7 -1 3 -11
-4 -11 -8 -13 -11 -6 -2 7 -8 10 -13 6 -5 -3 -9 -1 -9 4 0 10 167 172 176 172
3 0 0 -9 -6 -20z m-2110 -125 c14 -8 21 -14 15 -14 -5 0 -21 6 -35 14 -14 8
-20 14 -15 14 6 0 21 -6 35 -14z m2260 -49 c0 -2 -8 -10 -17 -17 -16 -13 -17
-12 -4 4 13 16 21 21 21 13z m-355 -53 c-9 -13 -13 -27 -11 -32 3 -5 0 -14 -8
-20 -10 -8 -16 -8 -25 3 -10 11 -8 23 9 56 18 34 24 39 36 29 13 -10 13 -15
-1 -36z m129 13 c-3 -8 -17 -22 -30 -31 -23 -15 -24 -14 -24 4 0 11 5 23 12
27 7 5 8 2 3 -7 -4 -8 0 -6 11 4 22 21 35 22 28 3z m-101 -11 c-3 -9 -8 -14
-10 -11 -3 3 -2 9 2 15 9 16 15 13 8 -4z m-1668 -35 c3 -5 2 -10 -4 -10 -5 0
-13 5 -16 10 -3 6 -2 10 4 10 5 0 13 -4 16 -10z m-7119 -13 c-10 -7 -32 -23
-47 -35 -16 -14 -27 -18 -24 -10 3 8 23 24 43 36 39 23 61 29 28 9z m7172 -13
c18 -8 34 -20 38 -25 3 -6 -12 -1 -35 10 -23 12 -41 24 -41 26 0 8 4 6 38 -11z
m77 -52 c-3 -3 -11 0 -18 7 -9 10 -8 11 6 5 10 -3 15 -9 12 -12z m1423 -37 c0
-23 -5 -35 -14 -35 -8 0 -14 4 -14 8 0 7 23 62 27 62 0 0 1 -16 1 -35z m0 -66
c3 -12 2 -12 -6 0 -8 11 -12 10 -21 -5 -8 -15 -10 -16 -11 -3 0 31 30 38 38 8z
m44 -11 c-7 -7 -12 -8 -12 -2 0 14 12 26 19 19 2 -3 -1 -11 -7 -17z m-8792 -3
c0 -2 -10 -10 -22 -16 -21 -11 -22 -11 -9 4 13 16 31 23 31 12z m-108 -84
c-27 -39 -60 -66 -68 -58 -3 2 5 21 17 41 23 39 37 49 18 14 -9 -18 -4 -16 22
10 19 17 35 32 36 32 2 0 -10 -18 -25 -39z m2394 18 c66 -11 97 -19 92 -23 -2
-2 -48 5 -103 14 -55 10 -88 18 -74 19 14 1 52 -4 85 -10z m6508 -35 c5 -14 4
-15 -9 -4 -17 14 -19 20 -6 20 5 0 12 -7 15 -16z m227 -109 c14 -20 9 -17 -16
10 -19 22 -45 54 -57 70 -13 20 -8 17 16 -10 20 -22 46 -53 57 -70z m-6494 49
c-3 -3 -12 -4 -19 -1 -8 3 -5 6 6 6 11 1 17 -2 13 -5z m6205 -92 c-17 -42 -36
-94 -42 -115 -7 -21 -14 -36 -16 -34 -4 4 32 124 63 207 9 25 18 39 21 32 2
-7 -10 -47 -26 -90z m-6135 72 c-3 -3 -12 -4 -19 -1 -8 3 -5 6 6 6 11 1 17 -2
13 -5z m40 -10 c-3 -3 -12 -4 -19 -1 -8 3 -5 6 6 6 11 1 17 -2 13 -5z m93 -34
c8 -5 11 -10 5 -10 -5 0 -17 5 -25 10 -8 5 -10 10 -5 10 6 0 17 -5 25 -10z
m-1943 -82 c-2 -13 -4 -5 -4 17 -1 22 1 32 4 23 2 -10 2 -28 0 -40z m2083 12
c8 -5 11 -10 5 -10 -5 0 -17 5 -25 10 -8 5 -10 10 -5 10 6 0 17 -5 25 -10z
m6011 -7 c13 -16 12 -17 -3 -4 -10 7 -18 15 -18 17 0 8 8 3 21 -13z m-5951
-23 c8 -5 11 -10 5 -10 -5 0 -17 5 -25 10 -8 5 -10 10 -5 10 6 0 17 -5 25 -10z
m-2285 -20 c-3 -5 -12 -10 -18 -10 -7 0 -6 4 3 10 19 12 23 12 15 0z m8369 -6
c3 -8 2 -12 -4 -9 -6 3 -10 10 -10 16 0 14 7 11 14 -7z m-227 -76 c-3 -8 -6
-5 -6 6 -1 11 2 17 5 13 3 -3 4 -12 1 -19z m-10 -65 c-3 -10 -5 -4 -5 12 0 17
2 24 5 18 2 -7 2 -21 0 -30z m-10 -85 c-3 -8 -6 -5 -6 6 -1 11 2 17 5 13 3 -3
4 -12 1 -19z m-10 -60 c-3 -7 -5 -2 -5 12 0 14 2 19 5 13 2 -7 2 -19 0 -25z
m-8257 -38 c8 -5 11 -10 5 -10 -5 0 -17 5 -25 10 -8 5 -10 10 -5 10 6 0 17 -5
25 -10z m-496 -52 c-16 -12 -51 -42 -78 -67 -27 -26 -44 -37 -37 -25 14 28
112 113 130 114 7 0 1 -10 -15 -22z m592 -6 c-4 -3 -14 2 -24 12 -16 18 -16
18 6 6 13 -6 21 -14 18 -18z m-763 -156 c-10 -13 -20 -22 -22 -20 -4 4 29 44
36 44 2 0 -4 -11 -14 -24z m18 -19 c-10 -9 -11 -8 -5 6 3 10 9 15 12 12 3 -3
0 -11 -7 -18z m-51 -21 c0 -2 -8 -10 -17 -17 -16 -13 -17 -12 -4 4 13 16 21
21 21 13z m3 -40 c-10 -13 -20 -22 -22 -20 -4 4 29 44 36 44 2 0 -4 -11 -14
-24z m-63 -36 c-17 -22 -37 -43 -43 -47 -6 -4 6 14 27 40 21 26 40 47 43 47 3
0 -10 -18 -27 -40z m11 -29 c-12 -16 -21 -34 -21 -40 0 -6 -9 -15 -20 -21 -15
-8 -19 -18 -16 -33 3 -12 3 -16 0 -9 -5 10 -11 9 -27 -5 -18 -16 -18 -14 3 17
31 46 91 120 97 120 2 0 -5 -13 -16 -29z m8996 -153 c-2 -24 -4 -5 -4 42 0 47
2 66 4 43 2 -24 2 -62 0 -85z m-9157 -62 c-23 -36 -44 -66 -46 -66 -6 0 -6 0
40 78 21 35 40 61 43 59 2 -3 -14 -35 -37 -71z m350 -69 c0 -2 -19 -21 -42
-42 l-43 -40 40 43 c36 39 45 47 45 39z m-461 -66 c-11 -31 -8 -146 7 -256 4
-30 3 -36 -5 -25 -13 18 -13 3 -1 -25 6 -14 9 -15 10 -5 0 8 13 -16 29 -55 27
-65 32 -98 10 -65 -6 11 -7 6 -4 -15 4 -18 -2 -50 -13 -80 l-20 -49 -35 109
c-19 61 -38 125 -42 143 -7 33 -22 42 -31 18 -5 -12 -71 -46 -89 -46 -18 0 2
23 40 46 55 32 65 48 66 111 1 57 26 144 29 103 2 -18 4 -14 10 16 10 48 38
119 45 112 3 -3 0 -19 -6 -37z m-378 -93 c-18 -72 -27 -133 -45 -313 -2 -22
-3 12 -1 75 2 71 11 146 23 195 11 44 23 93 26 109 4 15 9 26 12 23 3 -3 -4
-43 -15 -89z m743 50 c-58 -65 -186 -255 -248 -368 -43 -79 -48 -72 -6 10 54
107 246 380 268 380 3 0 -3 -10 -14 -22z m8953 -270 c-3 -8 -6 -5 -6 6 -1 11
2 17 5 13 3 -3 4 -12 1 -19z m-9516 -23 c-14 -30 -41 -48 -41 -28 0 6 50 63
56 63 1 0 -6 -16 -15 -35z m-234 -227 c-3 -7 -5 -2 -5 12 0 14 2 19 5 13 2 -7
2 -19 0 -25z m405 -77 c-15 -32 -28 -55 -30 -50 -3 8 45 109 53 109 2 0 -8
-26 -23 -59z m26 -13 c-35 -90 -38 -96 -32 -63 7 34 40 115 48 115 2 0 -5 -24
-16 -52z m-388 2 c-11 -22 -25 -57 -30 -77 l-10 -38 4 42 c2 23 14 58 26 78
29 47 35 44 10 -5z m353 -115 c4 -8 2 -17 -3 -20 -6 -4 -10 3 -10 14 0 25 6
27 13 6z m-56 -77 c-3 -8 -6 -5 -6 6 -1 11 2 17 5 13 3 -3 4 -12 1 -19z m38 2
c3 -5 1 -10 -4 -10 -6 0 -11 5 -11 10 0 6 2 10 4 10 3 0 8 -4 11 -10z m-368
-22 c-3 -8 -6 -5 -6 6 -1 11 2 17 5 13 3 -3 4 -12 1 -19z m280 -100 c-3 -8 -6
-5 -6 6 -1 11 2 17 5 13 3 -3 4 -12 1 -19z m-28 -122 c-7 -31 -14 -54 -16 -52
-3 2 1 30 7 61 6 31 14 55 16 52 2 -2 -1 -29 -7 -61z m-222 -48 c-3 -7 -5 -2
-5 12 0 14 2 19 5 13 2 -7 2 -19 0 -25z m2 -77 c5 -25 13 -55 17 -66 4 -11 4
-17 0 -14 -4 4 -18 42 -31 85 -14 48 -18 72 -10 60 8 -10 18 -39 24 -65z m198
37 c-3 -8 -6 -5 -6 6 -1 11 2 17 5 13 3 -3 4 -12 1 -19z m-208 -108 c0 -9 -4
-8 -9 5 -5 11 -9 27 -9 35 0 9 4 8 9 -5 5 -11 9 -27 9 -35z m31 -85 c0 -5 -5
-3 -10 5 -5 8 -10 20 -10 25 0 6 5 3 10 -5 5 -8 10 -19 10 -25z m30 -70 c0 -5
-5 -3 -10 5 -5 8 -10 20 -10 25 0 6 5 3 10 -5 5 -8 10 -19 10 -25z m125 -258
c10 -34 19 -87 21 -117 4 -85 58 -313 85 -362 5 -10 9 -23 9 -30 -1 -44 -61
136 -93 282 -16 67 -36 124 -56 158 -27 47 -61 117 -61 128 0 2 4 4 8 4 5 0
15 -16 22 -35 8 -20 21 -41 29 -48 11 -9 10 -5 -2 20 -19 37 -21 47 -7 38 17
-10 11 7 -7 22 -10 8 -12 12 -5 8 6 -3 12 -1 12 6 0 30 29 -17 45 -74z m-159
-107 c-8 -25 -28 -73 -45 -107 -17 -34 -38 -79 -46 -100 l-15 -38 6 40 c9 60
40 142 76 202 17 29 33 51 35 50 1 -2 -4 -23 -11 -47z m383 -594 c7 -5 9 -1 5
11 -5 15 -4 15 4 3 6 -8 8 -18 6 -22 -3 -4 8 -27 24 -50 32 -49 63 -103 117
-203 37 -68 148 -230 163 -237 4 -2 21 -19 37 -38 29 -34 29 -33 -15 5 -59 51
-124 137 -191 250 -49 83 -73 120 -106 171 -29 43 66 -136 101 -191 58 -92
110 -169 117 -175 3 -3 11 -16 18 -30 l12 -25 -21 25 c-99 119 -293 446 -306
516 -3 15 -13 43 -23 63 -10 20 -21 49 -25 64 -4 15 -11 25 -16 22 -6 -4 -7 1
-3 11 5 13 18 -7 49 -73 23 -50 47 -93 53 -97z m-9 -83 c65 -124 81 -167 76
-197 -40 -218 -17 -508 58 -739 64 -194 145 -342 321 -587 22 -30 33 -50 25
-45 -13 8 -13 7 0 -11 86 -110 270 -261 247 -201 -3 7 4 12 17 12 18 0 22 -6
22 -32 0 -20 -5 -33 -13 -33 -25 0 -13 -20 28 -46 22 -14 39 -28 36 -31 -6 -5
-59 30 -182 118 -38 28 -92 66 -120 84 -27 18 -66 49 -84 69 -34 35 -60 49
-45 24 5 -7 -16 7 -46 32 -39 33 -50 38 -41 21 8 -14 9 -22 3 -20 -16 6 -162
150 -162 160 0 5 -4 17 -9 27 -14 24 -58 142 -66 175 -4 15 -11 27 -15 27 -5
0 -12 10 -15 23 -4 12 -14 42 -23 67 l-17 45 -5 -35 c-5 -34 -6 -32 -35 45
-29 78 -30 79 -35 45 l-6 -35 -7 35 c-4 19 -10 152 -13 295 -6 235 -4 275 15
410 20 138 60 335 68 335 1 0 12 -17 23 -37z m154 -100 c32 -46 55 -83 52 -83
-6 0 -116 156 -116 166 0 9 -5 16 64 -83z m355 -540 c75 -73 132 -132 127
-133 -15 0 -265 252 -297 300 l-30 45 32 -40 c18 -22 94 -99 168 -172z m-89
122 c13 -14 21 -25 18 -25 -2 0 -15 11 -28 25 -13 14 -21 25 -18 25 2 0 15
-11 28 -25z m375 -235 c10 -11 16 -20 13 -20 -3 0 -13 9 -23 20 -10 11 -16 20
-13 20 3 0 13 -9 23 -20z m95 -77 c0 -7 -58 36 -66 49 -4 7 9 -1 29 -16 20
-16 37 -30 37 -33z m114 -177 c17 -13 72 -45 121 -71 86 -45 132 -75 91 -59
-36 14 -241 126 -256 140 -25 24 9 17 44 -10z m-38 -12 c25 -15 43 -29 40 -31
-3 -3 -26 9 -52 26 -58 38 -50 41 12 5z m44 -60 c0 -2 -9 0 -20 6 -11 6 -20
13 -20 16 0 2 9 0 20 -6 11 -6 20 -13 20 -16z m55 -2 c-3 -3 -11 0 -18 7 -9
10 -8 11 6 5 10 -3 15 -9 12 -12z m65 -86 c0 -2 -8 -10 -17 -17 -16 -13 -17
-12 -4 4 13 16 21 21 21 13z m27 -47 c-56 -29 -171 -143 -192 -189 -10 -22
-20 -38 -22 -36 -2 2 7 27 20 55 13 28 26 49 29 46 3 -3 18 9 33 27 42 51 128
118 150 118 14 -1 10 -6 -18 -21z m382 -79 c64 -17 179 -38 256 -49 124 -17
133 -19 74 -20 -110 -2 -349 47 -440 89 -24 11 -35 18 -25 15 11 -3 72 -19
135 -35z m901 -41 c-34 -8 -242 -36 -309 -41 -34 -3 -35 -4 -53 -78 -10 -41
-23 -79 -30 -85 -7 -7 -9 -7 -5 1 6 10 38 153 37 164 -1 3 -14 -31 -30 -74
-17 -44 -34 -82 -38 -85 -5 -3 -23 -33 -42 -65 -31 -55 -130 -164 -237 -259
-86 -77 -48 -33 73 86 123 119 161 166 146 182 -4 5 -1 4 7 0 11 -6 13 -4 8 9
-5 11 -3 15 5 10 7 -5 9 -2 5 8 -3 9 5 42 18 74 13 33 27 71 30 86 7 26 5 27
-42 31 -26 2 -10 4 37 4 96 1 317 20 370 33 19 4 46 8 60 8 19 0 17 -2 -10 -9z
m-103 -137 c67 -103 117 -192 110 -198 -2 -3 -21 25 -41 61 -20 36 -61 98 -91
139 -30 40 -55 76 -55 79 0 21 33 -14 77 -81z m-44 11 c51 -80 64 -102 50 -88
-15 16 -103 143 -103 149 0 16 13 0 53 -61z m204 -145 c-2 -13 -4 -5 -4 17 -1
22 1 32 4 23 2 -10 2 -28 0 -40z m-1897 -185 c0 -7 -39 17 -46 28 -3 6 5 3 20
-6 14 -10 26 -19 26 -22z m-124 -4 c3 -6 -5 -3 -20 6 -14 10 -26 19 -26 22 0
7 39 -17 46 -28z m-66 -4 c13 -14 21 -25 18 -25 -2 0 -15 11 -28 25 -13 14
-21 25 -18 25 2 0 15 -11 28 -25z m1415 -15 c-3 -5 -11 -10 -16 -10 -6 0 -7 5
-4 10 3 6 11 10 16 10 6 0 7 -4 4 -10z m-1285 -86 c0 -8 -35 14 -70 46 -32 28
-30 28 18 -6 28 -20 52 -38 52 -40z m1205 6 c-3 -5 -14 -10 -23 -9 -14 0 -13
2 3 9 27 11 27 11 20 0z m-1019 -28 c-4 -3 -14 2 -24 12 -16 18 -16 18 6 6 13
-6 21 -14 18 -18z m-155 1 c13 -16 12 -17 -3 -4 -10 7 -18 15 -18 17 0 8 8 3
21 -13z m1089 7 c-8 -5 -19 -10 -25 -10 -5 0 -3 5 5 10 8 5 20 10 25 10 6 0 3
-5 -5 -10z m-850 -20 c8 -5 11 -10 5 -10 -5 0 -17 5 -25 10 -8 5 -10 10 -5 10
6 0 17 -5 25 -10z m-112 -29 c20 -10 58 -21 85 -24 67 -9 107 -31 100 -57 -3
-12 0 -20 6 -20 7 0 9 -4 6 -10 -3 -5 1 -10 9 -10 8 0 17 -4 21 -9 3 -6 -10
-8 -32 -5 -29 4 -34 3 -23 -5 8 -6 23 -11 32 -11 9 0 19 -4 23 -10 8 -12 -113
-5 -159 10 -33 11 -50 30 -26 30 22 0 7 18 -40 49 -58 38 -61 41 -53 69 7 27
5 26 51 3z m348 -41 c0 -13 -5 -19 -14 -15 -7 3 -29 5 -48 5 -64 0 -36 26 31
29 25 1 31 -3 31 -19z m284 -10 c-34 -11 -60 -11 -35 0 11 5 29 8 40 8 16 0
15 -2 -5 -8z m-821 -83 c31 -22 48 -36 38 -33 -25 8 -130 81 -147 102 -10 12
-3 10 19 -6 18 -14 59 -42 90 -63z m491 53 c-8 -5 -22 -10 -30 -10 -13 0 -13
1 0 10 8 5 22 10 30 10 13 0 13 -1 0 -10z m277 4 c-3 -3 -12 -4 -19 -1 -8 3
-5 6 6 6 11 1 17 -2 13 -5z m-73 -34 c-13 -13 -134 -22 -134 -10 0 8 38 15
110 18 22 1 31 -1 24 -8z m-11 -47 c-13 -2 -35 -2 -50 0 -16 2 -5 4 22 4 28 0
40 -2 28 -4z m-216 -9 c-3 -3 -12 -4 -19 -1 -8 3 -5 6 6 6 11 1 17 -2 13 -5z
m-240 -361 c-1 -43 -3 -10 -3 72 0 83 2 118 3 78 2 -40 2 -107 0 -150z m438
80 c14 -45 15 -46 9 -10 -8 57 11 38 27 -25 7 -29 13 -60 14 -68 2 -22 32
-150 62 -263 14 -54 23 -100 21 -103 -12 -11 -38 29 -39 59 0 18 -4 41 -9 52
-7 15 -8 9 -5 -20 l5 -40 -15 45 c-8 24 -31 119 -50 210 -19 91 -37 175 -40
188 -9 40 4 23 20 -25z m330 12 c105 -10 118 -19 35 -25 -81 -6 -214 15 -189
30 7 5 31 7 53 5 23 -2 68 -7 101 -10z m-228 -76 c17 -92 15 -94 -13 -9 -28
89 -27 83 -12 78 7 -3 18 -33 25 -69z m-590 9 c-2 -13 -4 -5 -4 17 -1 22 1 32
4 23 2 -10 2 -28 0 -40z m658 24 c-3 -3 -11 0 -18 7 -9 10 -8 11 6 5 10 -3 15
-9 12 -12z m1132 -34 c-3 -7 -5 -2 -5 12 0 14 2 19 5 13 2 -7 2 -19 0 -25z
m-1116 -348 c8 -44 18 -63 35 -75 18 -12 24 -12 24 -3 0 9 3 10 8 2 4 -6 17
-15 30 -18 14 -5 32 -26 45 -54 12 -26 24 -49 27 -52 3 -3 16 -19 30 -35 17
-20 19 -25 5 -14 -11 9 -29 19 -40 23 -30 9 -128 80 -127 91 0 6 -6 18 -15 27
-19 21 -53 168 -39 168 3 0 10 -27 17 -60z m-1046 40 c-3 -5 -10 -10 -16 -10
-5 0 -9 5 -9 10 0 6 7 10 16 10 8 0 12 -4 9 -10z m925 -68 c3 -2 -6 -1 -20 3
-13 4 -30 14 -38 21 -7 8 -18 11 -24 8 -7 -4 -8 -2 -4 5 6 8 18 6 44 -10 20
-13 39 -25 42 -27z m1325 8 c3 -5 1 -10 -4 -10 -6 0 -11 5 -11 10 0 6 2 10 4
10 3 0 8 -4 11 -10z m-1224 -40 c5 0 9 -8 9 -17 -1 -16 -2 -16 -15 1 -8 11
-14 29 -14 40 2 19 2 19 6 -1 2 -13 9 -23 14 -23z m83 14 c3 -8 2 -12 -4 -9
-6 3 -10 10 -10 16 0 14 7 11 14 -7z m-138 -15 c19 -22 19 -22 -1 -11 -11 6
-27 16 -35 22 -13 8 -13 10 1 10 9 0 24 -10 35 -21z m99 -59 c3 -5 2 -10 -4
-10 -5 0 -13 5 -16 10 -3 6 -2 10 4 10 5 0 13 -4 16 -10z m7425 -424 c0 -2 -8
-10 -17 -17 -16 -13 -17 -12 -4 4 13 16 21 21 21 13z m-66 -67 c-3 -5 -10 -7
-15 -3 -5 3 -7 10 -3 15 3 5 10 7 15 3 5 -3 7 -10 3 -15z m13 -153 c-4 -9 5
-18 23 -26 67 -28 95 -101 32 -85 -15 3 -45 15 -67 25 -22 10 -46 20 -54 22
-10 3 -5 15 19 41 32 37 57 49 47 23z m-192 -56 c-4 -6 -15 -8 -25 -5 -10 3
-21 1 -25 -5 -3 -5 -14 -10 -23 -10 -15 1 -15 2 2 15 23 17 81 21 71 5z m-115
-115 c0 -2 -17 -13 -37 -24 -21 -11 -54 -34 -73 -51 -34 -31 -33 -30 16 4 66
46 79 46 22 1 -109 -89 -122 -99 -109 -80 7 11 3 9 -11 -5 -13 -14 -34 -34
-46 -44 -22 -19 -22 -19 -16 -1 5 13 4 16 -4 11 -8 -5 -12 1 -12 17 0 20 19
37 108 95 59 38 114 72 122 75 19 7 40 8 40 2z m-675 -55 c-11 -5 -45 -8 -75
-8 -53 1 -54 1 -15 8 22 4 56 7 75 8 28 0 31 -1 15 -8z m-172 -17 c-18 -2 -48
-2 -65 0 -18 2 -4 4 32 4 36 0 50 -2 33 -4z m707 -134 c-47 -44 -97 -87 -112
-95 -27 -14 -28 -13 -28 8 0 13 11 30 23 39 78 55 189 129 195 129 4 -1 -31
-37 -78 -81z m-6140 -63 c0 -15 -24 11 -44 46 l-19 33 31 -35 c17 -19 31 -39
32 -44z m-585 4 c21 -22 37 -40 34 -40 -3 0 -23 18 -44 40 -21 22 -37 40 -34
40 3 0 23 -18 44 -40z m826 -157 c13 -15 12 -15 -8 -4 -24 12 -29 21 -14 21 5
0 15 -7 22 -17z m469 -284 c0 -6 -4 -7 -10 -4 -5 3 -10 11 -10 16 0 6 5 7 10
4 6 -3 10 -11 10 -16z m1780 -449 c6 -11 8 -20 6 -20 -3 0 -10 9 -16 20 -6 11
-8 20 -6 20 3 0 10 -9 16 -20z m799 -28 c-8 -11 -30 -32 -49 -48 -31 -25 -30
-23 10 22 45 50 65 63 39 26z m-131 -31 c-59 -73 -348 -223 -593 -307 -82 -29
-254 -65 -299 -63 -18 1 -7 5 29 10 99 15 224 49 330 91 55 22 104 44 109 49
6 5 17 9 26 9 22 0 173 74 235 115 28 18 66 41 85 51 20 11 49 31 65 47 38 35
42 34 13 -2z m-1947 -38 c13 -16 12 -17 -3 -4 -10 7 -18 15 -18 17 0 8 8 3 21
-13z m1375 -35 l29 -33 -32 29 c-31 28 -38 36 -30 36 2 0 16 -15 33 -32z m614
27 c0 -2 -40 -31 -88 -64 -86 -57 -447 -235 -461 -226 -4 2 -48 -9 -97 -24
-49 -16 -109 -32 -134 -35 -25 -3 -6 5 45 18 50 14 117 35 150 47 33 13 64 22
68 21 4 -1 65 26 135 60 70 34 130 61 134 60 8 -2 110 59 193 114 52 35 55 37
55 29z m-1851 -132 c30 -41 358 -149 546 -178 44 -7 67 -13 50 -14 -100 -3
-421 71 -508 116 -107 56 -157 84 -157 88 0 7 63 -4 69 -12z m819 -200 c-32
-2 -84 -2 -115 0 -32 2 -6 3 57 3 63 0 89 -1 58 -3z m195 -30 c-7 -2 -21 -2
-30 0 -10 3 -4 5 12 5 17 0 24 -2 18 -5z m114 1 c-3 -3 -12 -4 -19 -1 -8 3 -5
6 6 6 11 1 17 -2 13 -5z m-174 -11 c-7 -2 -21 -2 -30 0 -10 3 -4 5 12 5 17 0
24 -2 18 -5z m130 0 c-7 -2 -19 -2 -25 0 -7 3 -2 5 12 5 14 0 19 -2 13 -5z
m-646 -9 c-3 -3 -12 -4 -19 -1 -8 3 -5 6 6 6 11 1 17 -2 13 -5z m578 -4 c-11
-5 -31 -8 -45 -8 -23 0 -22 1 5 8 42 11 65 11 40 0z m-517 -7 c-10 -2 -26 -2
-35 0 -10 3 -2 5 17 5 19 0 27 -2 18 -5z m315 -10 c-51 -2 -136 -2 -190 0 -54
1 -12 3 92 3 105 0 149 -2 98 -3z"/>
<path d="M9817 9755 c-9 -19 -15 -35 -12 -35 7 0 37 61 33 66 -3 2 -12 -12
-21 -31z"/>
<path d="M511 7775 c1 -19 18 -51 18 -35 0 8 -4 22 -9 30 -5 8 -9 11 -9 5z"/>
<path d="M527 5335 c-4 -22 -6 -56 -6 -75 1 -22 5 -11 10 30 10 72 6 108 -4
45z"/>
<path d="M2510 4213 c-12 -37 -26 -72 -31 -77 -5 -6 -9 -15 -9 -20 0 -6 6 -2
13 9 19 28 61 145 54 151 -3 3 -15 -25 -27 -63z"/>
<path d="M1682 3180 c0 -14 2 -19 5 -12 2 6 2 18 0 25 -3 6 -5 1 -5 -13z"/>
<path d="M1691 3140 c0 -8 6 -37 13 -65 8 -27 15 -43 15 -35 0 8 -6 38 -13 65
-8 28 -15 43 -15 35z"/>
<path d="M1722 3000 c0 -14 2 -19 5 -12 2 6 2 18 0 25 -3 6 -5 1 -5 -13z"/>
<path d="M1732 2945 c0 -16 2 -22 5 -12 2 9 2 23 0 30 -3 6 -5 -1 -5 -18z"/>
<path d="M5320 370 c-9 -6 -10 -10 -3 -10 6 0 15 5 18 10 8 12 4 12 -15 0z"/>
<path d="M3223 10193 c9 -2 23 -2 30 0 6 3 -1 5 -18 5 -16 0 -22 -2 -12 -5z"/>
<path d="M3335 10170 c11 -5 29 -8 40 -8 16 0 15 2 -5 8 -34 11 -60 11 -35 0z"/>
<path d="M6250 9959 c-173 -7 -404 -36 -569 -70 -136 -28 -275 -62 -281 -69
-7 -8 -198 -80 -230 -87 -14 -3 -86 -35 -160 -72 -74 -36 -142 -66 -150 -66
-8 0 -31 -9 -50 -20 -19 -11 -48 -24 -65 -30 -16 -6 -29 -16 -28 -22 1 -6 -8
-19 -20 -29 l-22 -19 19 23 c31 36 11 26 -69 -34 -41 -31 -72 -61 -68 -67 3
-6 2 -7 -4 -4 -5 3 -40 -23 -78 -58 -38 -35 -71 -63 -74 -62 -4 1 -6 -1 -6 -5
0 -10 -98 -108 -108 -108 -4 0 -5 5 -1 12 4 7 3 8 -5 4 -6 -4 -9 -12 -6 -17 4
-5 -43 -60 -103 -122 -162 -166 -258 -284 -341 -421 -23 -36 -41 -68 -41 -70
0 -2 48 -37 107 -77 367 -250 654 -560 822 -888 98 -193 176 -407 196 -545 4
-25 11 -46 15 -46 4 0 5 10 3 23 -3 19 13 33 107 95 61 41 115 70 122 66 7 -5
8 -3 3 6 -6 10 -4 12 9 7 10 -4 15 -3 11 3 -3 5 11 18 32 28 37 18 121 68 173
102 51 33 243 121 407 186 131 52 179 67 218 66 29 0 145 24 280 58 240 60
523 113 578 108 18 -2 -44 -16 -138 -31 -165 -28 -420 -89 -595 -142 -221 -68
-339 -101 -334 -93 9 14 -30 8 -71 -12 -22 -11 -47 -19 -55 -20 -10 0 -11 -3
-3 -11 8 -8 17 -8 31 0 31 16 41 13 12 -4 -29 -17 -60 -19 -60 -5 0 13 -16 7
-160 -63 -132 -64 -224 -116 -217 -124 3 -2 20 5 38 17 19 11 63 34 99 52 36
17 67 35 70 39 9 12 143 70 154 65 6 -2 -7 -11 -29 -21 -116 -49 -126 -55
-119 -66 4 -8 3 -9 -4 -5 -7 4 -27 -4 -45 -18 -19 -15 -41 -26 -50 -26 -10 0
-17 -4 -17 -10 0 -5 -5 -10 -10 -10 -14 0 -76 -30 -115 -55 -26 -17 -28 -17
-16 -2 8 10 9 17 3 17 -6 0 -15 -6 -19 -13 -4 -8 -56 -46 -115 -86 -60 -40
-108 -75 -108 -78 0 -3 8 1 18 8 14 11 14 10 -2 -8 -10 -13 -22 -20 -26 -18
-4 3 -11 -2 -14 -11 -3 -8 -10 -12 -16 -9 -5 3 -10 -3 -10 -14 0 -12 5 -21 10
-21 6 0 10 5 10 10 0 6 10 10 21 10 19 0 20 -2 8 -17 -13 -17 -12 -17 6 -3 11
9 34 22 50 30 17 8 54 29 83 47 29 19 74 44 100 57 54 26 131 69 184 103 21
12 42 23 47 23 5 0 13 5 17 12 4 7 3 8 -4 4 -7 -4 -12 -4 -12 -1 0 17 505 229
521 219 5 -3 21 2 36 11 16 9 19 13 8 10 -46 -15 -49 -16 -25 -2 14 8 61 25
105 37 44 12 110 32 147 46 37 13 75 21 85 17 11 -4 14 -3 9 5 -4 7 -5 12 -2
12 3 0 67 16 141 35 85 21 149 32 168 29 21 -4 27 -2 19 3 -8 6 30 16 110 27
68 10 170 25 228 33 77 12 196 16 445 17 307 1 354 -1 481 -22 270 -42 574
-129 771 -218 28 -13 56 -24 62 -24 5 0 11 -4 13 -8 2 -4 46 -34 98 -65 52
-31 109 -68 125 -81 l30 -25 -36 -36 c-35 -36 -37 -37 -61 -21 -14 9 -27 14
-30 10 -3 -3 -36 11 -74 30 -76 40 -74 39 -74 28 0 -5 18 -17 40 -27 23 -10
44 -23 47 -28 3 -5 -31 10 -76 33 -46 24 -77 46 -71 50 12 7 -116 66 -138 63
-7 0 -11 2 -8 5 8 8 -137 57 -273 93 -63 16 -122 34 -132 40 -10 5 -22 9 -26
8 -26 -4 -63 2 -58 10 3 6 -10 8 -32 5 -30 -4 -35 -3 -23 6 12 8 6 9 -25 5
-31 -5 -37 -4 -25 5 12 9 9 11 -17 7 -18 -2 -33 -1 -33 3 0 12 -207 32 -391
37 -178 5 -506 -10 -579 -26 -21 -5 16 -7 95 -5 l130 3 -140 -14 c-77 -7 -183
-20 -235 -29 -135 -23 -341 -74 -305 -76 39 -3 -143 -49 -206 -52 -26 -2 -45
-6 -43 -9 5 -9 0 -11 -206 -75 -96 -31 -193 -64 -215 -74 -22 -10 -110 -42
-195 -70 -278 -94 -521 -193 -506 -207 2 -2 46 10 97 27 328 113 630 176 969
201 228 17 561 -11 785 -66 33 -8 85 -16 115 -19 30 -2 56 -9 58 -15 2 -6 10
-11 18 -11 7 0 59 -18 114 -40 445 -177 860 -527 1141 -960 l34 -53 7 54 c34
242 111 515 189 672 124 247 322 467 610 679 43 31 80 61 83 66 3 5 0 29 -7
53 -17 55 -17 56 -17 73 0 8 -6 21 -14 28 -7 8 -38 63 -69 124 -93 185 -109
212 -131 231 -21 18 -21 18 -5 -2 27 -34 33 -52 6 -20 -14 16 -23 33 -21 37 6
10 -86 134 -97 131 -5 -2 -20 17 -35 42 -14 25 -30 43 -34 40 -5 -3 -22 14
-39 38 -29 43 -224 231 -356 344 -58 50 -159 125 -271 201 -16 11 -16 11 6 2
23 -10 24 -10 6 4 -10 9 -22 13 -27 11 -4 -3 -42 16 -86 41 -368 219 -911 377
-1453 424 -149 13 -425 13 -565 0 -266 -25 -688 -115 -840 -181 -11 -4 -60
-24 -110 -42 -161 -62 -297 -126 -447 -213 -85 -49 -152 -82 -159 -78 -8 4 -9
3 -5 -5 5 -8 -3 -16 -23 -24 -17 -6 -31 -15 -31 -19 0 -9 120 -158 128 -158 5
0 4 1 -53 75 -22 28 -46 56 -54 62 -8 7 -12 16 -9 19 34 34 211 -244 299 -468
12 -31 27 -54 32 -51 6 3 7 1 3 -6 -11 -17 16 -84 27 -68 5 8 6 4 2 -9 -3 -12
-1 -32 5 -45 10 -22 10 -22 5 6 -8 47 42 -65 70 -159 27 -90 49 -205 41 -213
-3 -3 -8 8 -11 23 -15 71 -48 194 -68 253 -15 47 -22 59 -27 45 -5 -13 -13 1
-29 51 -48 149 -193 399 -326 564 -43 53 -61 69 -70 61 -7 -6 -21 -7 -30 -3
-14 5 -16 3 -10 -7 5 -9 -5 -24 -31 -47 -59 -52 -190 -143 -206 -143 -7 0 -1
6 13 14 60 31 224 165 203 166 -5 0 -55 -36 -109 -79 -55 -44 -101 -78 -103
-76 -6 5 84 117 127 159 22 22 37 44 34 49 -3 6 -2 7 4 4 10 -6 41 22 58 52 6
10 -2 7 -21 -5 -52 -37 -60 -36 -21 1 l38 36 -46 57 -47 57 51 -53 52 -54 67
44 c93 62 167 105 312 180 180 94 270 132 485 203 385 128 629 170 1050 182
563 15 1087 -79 1547 -277 215 -93 390 -186 492 -262 50 -37 97 -66 103 -63 7
2 16 -1 20 -8 5 -7 28 -28 53 -47 69 -52 125 -102 251 -226 64 -63 122 -114
129 -114 21 0 5 160 -25 265 -14 50 -46 131 -69 180 -52 106 -174 275 -237
326 -24 20 -55 46 -68 58 -13 11 -30 21 -38 21 -7 0 -13 4 -13 9 0 12 -225
157 -355 228 -116 64 -324 159 -434 198 -163 59 -508 140 -716 170 -105 14
-455 36 -540 33 -22 0 -114 -4 -205 -9z m-1550 -543 c0 -2 -7 -7 -16 -10 -8
-3 -12 -2 -9 4 6 10 25 14 25 6z m-40 -30 c0 -2 -8 -10 -17 -17 -16 -13 -17
-12 -4 4 13 16 21 21 21 13z m-40 -39 c0 -2 -12 -14 -27 -28 l-28 -24 24 28
c23 25 31 32 31 24z m-95 -83 c-39 -35 -135 -103 -165 -118 -18 -8 10 14 115
93 91 68 108 76 50 25z m-289 -286 l29 -33 -32 29 c-18 17 -33 31 -33 33 0 8
8 1 36 -29z m59 -58 c10 -11 16 -20 13 -20 -3 0 -13 9 -23 20 -10 11 -16 20
-13 20 3 0 13 -9 23 -20z m4480 -250 c10 -11 16 -20 13 -20 -3 0 -13 9 -23 20
-10 11 -16 20 -13 20 3 0 13 -9 23 -20z m55 -45 c13 -14 21 -25 18 -25 -2 0
-15 11 -28 25 -13 14 -21 25 -18 25 2 0 15 -11 28 -25z m-4300 -126 c15 -28 5
-23 -15 7 -9 15 -12 23 -6 20 6 -4 16 -16 21 -27z m360 -314 c0 -5 -5 -3 -10
5 -5 8 -10 20 -10 25 0 6 5 3 10 -5 5 -8 10 -19 10 -25z m2382 -26 c117 -14
116 -14 124 -22 4 -4 20 -7 37 -7 115 0 417 -123 597 -242 93 -63 313 -239
306 -246 -3 -2 -36 20 -73 50 -37 30 -81 63 -98 73 l-30 17 30 -23 c17 -13 46
-39 65 -58 l35 -34 -40 29 c-89 62 -130 96 -130 106 0 6 -6 13 -14 16 -9 3
-11 0 -6 -8 5 -9 4 -11 -4 -6 -6 4 -9 12 -6 17 3 5 -14 22 -39 37 -25 16 -42
33 -38 37 4 5 2 5 -4 2 -6 -3 -27 5 -46 18 -64 43 -208 113 -287 139 -161 54
-450 105 -603 108 -81 1 -86 2 -38 7 64 8 141 5 262 -10z m-692 -53 c-3 -2
-62 -9 -131 -15 -70 -6 -153 -17 -185 -25 -115 -29 -280 -75 -323 -90 -82 -30
-66 -15 22 20 97 38 292 91 377 102 65 9 246 15 240 8z m-1663 -88 c-3 -8 -6
-5 -6 6 -1 11 2 17 5 13 3 -3 4 -12 1 -19z m20 -70 c-3 -8 -6 -5 -6 6 -1 11 2
17 5 13 3 -3 4 -12 1 -19z m917 2 c-6 -6 -25 -15 -44 -20 -40 -11 -31 0 13 17
41 15 43 15 31 3z m-1014 -44 c0 -12 -5 -7 -19 24 -11 24 -11 24 3 6 9 -11 16
-24 16 -30z m40 -21 c0 -5 -5 -3 -10 5 -5 8 -10 20 -10 25 0 6 5 3 10 -5 5 -8
10 -19 10 -25z m831 9 c-29 -13 -59 -24 -65 -24 -13 1 95 49 109 49 6 0 -14
-11 -44 -25z m-86 -34 c-3 -5 -12 -10 -18 -10 -7 0 -6 4 3 10 19 12 23 12 15
0z m-653 -139 c8 11 9 10 4 -3 -3 -10 -1 -18 4 -18 5 0 14 -18 20 -41 6 -22
14 -47 17 -56 4 -10 2 -14 -7 -11 -7 2 -21 26 -31 53 -19 49 -35 103 -23 76 5
-11 8 -11 16 0z m3928 -11 c0 -5 -5 -10 -11 -10 -5 0 -7 5 -4 10 3 6 8 10 11
10 2 0 4 -4 4 -10z m-3635 -50 c-3 -5 -12 -10 -18 -10 -7 0 -6 4 3 10 19 12
23 12 15 0z m-36 -24 c-2 -2 -15 -9 -29 -15 -24 -11 -24 -11 -6 3 16 13 49 24
35 12z m-96 -35 c-3 -11 -13 -27 -24 -37 -13 -12 -16 -21 -9 -34 5 -10 11 -60
14 -111 2 -52 2 -80 0 -64 -3 17 -7 37 -10 45 -10 27 -34 -20 -35 -69 -2 -35
-3 -38 -6 -16 -3 17 -9 35 -13 40 -5 6 3 24 19 44 25 30 27 38 20 85 -4 28
-10 65 -14 81 -5 23 -4 26 4 15 10 -14 16 -7 12 14 -1 5 5 6 13 3 9 -4 15 -3
15 1 -2 14 1 22 10 22 5 0 7 -9 4 -19z m32 -1 c-3 -5 -12 -10 -18 -10 -7 0 -6
4 3 10 19 12 23 12 15 0z m-121 -71 c-10 -12 -18 -31 -18 -42 1 -15 0 -17 -3
-4 -4 16 -7 16 -36 -4 -21 -14 -15 -6 17 25 51 48 73 62 40 25z m2903 -25 c-3
-3 -12 -4 -19 -1 -8 3 -5 6 6 6 11 1 17 -2 13 -5z m60 -10 c-3 -3 -12 -4 -19
-1 -8 3 -5 6 6 6 11 1 17 -2 13 -5z m56 -11 c-7 -2 -21 -2 -30 0 -10 3 -4 5
12 5 17 0 24 -2 18 -5z m-1506 -9 c-3 -3 -12 -4 -19 -1 -8 3 -5 6 6 6 11 1 17
-2 13 -5z m-767 -18 c0 -2 -9 -6 -20 -9 -11 -3 -18 -1 -14 4 5 9 34 13 34 5z
m2407 -22 c-3 -3 -12 -4 -19 -1 -8 3 -5 6 6 6 11 1 17 -2 13 -5z m72 -20 c11
-11 -7 -10 -34 3 l-30 14 30 -6 c16 -4 32 -9 34 -11z m-1936 -21 c-13 -2 -33
-2 -45 0 -13 2 -3 4 22 4 25 0 35 -2 23 -4z m90 -10 c-13 -2 -33 -2 -45 0 -13
2 -3 4 22 4 25 0 35 -2 23 -4z m37 -94 c100 -10 284 -50 322 -70 12 -6 18 -6
18 0 0 6 15 4 35 -5 19 -8 35 -12 35 -9 0 3 12 -1 28 -8 15 -7 36 -12 47 -10
18 3 18 3 3 -7 -18 -11 -165 15 -252 44 -73 25 -241 55 -344 62 -53 4 -106 10
-117 14 -22 9 68 4 225 -11z m-405 -4 c-60 -7 -128 -16 -150 -19 -33 -5 -36
-5 -16 4 31 14 140 27 216 28 47 0 36 -3 -50 -13z m2670 5 c3 -6 -1 -7 -9 -4
-18 7 -21 14 -7 14 6 0 13 -4 16 -10z m-2507 -7 c-10 -2 -26 -2 -35 0 -10 3
-2 5 17 5 19 0 27 -2 18 -5z m653 -44 c19 -16 20 -18 4 -10 -34 17 -51 31 -39
31 7 0 22 -9 35 -21z"/>
<path d="M8100 7796 c0 -2 7 -7 16 -10 8 -3 12 -2 9 4 -6 10 -25 14 -25 6z"/>
<path d="M7598 9953 c7 -3 16 -2 19 1 4 3 -2 6 -13 5 -11 0 -14 -3 -6 -6z"/>
<path d="M7168 9943 c6 -2 18 -2 25 0 6 3 1 5 -13 5 -14 0 -19 -2 -12 -5z"/>
<path d="M5580 9894 c-63 -13 -133 -30 -155 -38 -69 -24 -195 -80 -191 -84 5
-4 135 46 151 58 11 8 181 51 278 70 31 6 57 13 57 16 0 6 -16 4 -140 -22z"/>
<path d="M9335 9830 c10 -11 20 -20 23 -20 3 0 -3 9 -13 20 -10 11 -20 20 -23
20 -3 0 3 -9 13 -20z"/>
<path d="M1364 9825 c-10 -8 -14 -15 -8 -15 6 0 17 7 24 15 16 19 9 19 -16 0z"/>
<path d="M5235 9820 c-11 -5 -42 -18 -69 -30 -27 -11 -46 -23 -43 -27 4 -3 12
-1 19 4 7 6 35 18 61 28 26 10 50 22 53 26 6 10 5 10 -21 -1z"/>
<path d="M9380 9786 c0 -2 7 -7 16 -10 8 -3 12 -2 9 4 -6 10 -25 14 -25 6z"/>
<path d="M5180 9755 c-14 -8 -20 -14 -15 -14 6 0 21 6 35 14 14 8 21 14 15 14
-5 0 -21 -6 -35 -14z"/>
<path d="M1269 9729 c-58 -41 -72 -57 -31 -33 36 21 90 63 81 64 -3 0 -26 -14
-50 -31z"/>
<path d="M5040 9730 c-8 -5 -10 -10 -5 -10 6 0 17 5 25 10 8 5 11 10 5 10 -5
0 -17 -5 -25 -10z"/>
<path d="M4934 9675 c-90 -58 -77 -58 17 0 40 25 68 45 63 45 -6 0 -42 -20
-80 -45z"/>
<path d="M1169 9659 l-24 -20 28 17 c15 9 27 18 27 20 0 8 -8 4 -31 -17z"/>
<path d="M4858 9664 c-38 -20 -36 -28 2 -9 17 9 30 18 30 20 0 7 -1 6 -32 -11z"/>
<path d="M4754 9604 c-18 -14 -18 -15 4 -4 12 6 22 13 22 15 0 8 -5 6 -26 -11z"/>
<path d="M9878 9373 c11 -16 33 -39 48 -53 16 -14 9 -2 -16 28 -46 56 -64 70
-32 25z"/>
<path d="M4212 9299 c-34 -34 -61 -63 -59 -65 2 -2 32 26 67 61 82 82 76 85
-8 4z"/>
<path d="M4339 9233 c-13 -16 -12 -17 4 -4 16 13 21 21 13 21 -2 0 -10 -8 -17
-17z"/>
<path d="M4099 9193 c-69 -74 -208 -253 -196 -253 3 0 23 24 44 52 36 51 94
119 152 183 28 30 45 55 39 55 -2 0 -20 -17 -39 -37z"/>
<path d="M9672 8845 c0 -16 2 -22 5 -12 2 9 2 23 0 30 -3 6 -5 -1 -5 -18z"/>
<path d="M9663 8775 c0 -22 2 -30 4 -17 2 12 2 30 0 40 -3 9 -5 -1 -4 -23z"/>
<path d="M8350 8797 c0 -2 19 -17 43 -32 23 -16 37 -22 30 -14 -12 15 -73 53
-73 46z"/>
<path d="M9722 8720 c0 -14 2 -19 5 -12 2 6 2 18 0 25 -3 6 -5 1 -5 -13z"/>
<path d="M9643 8665 c0 -22 2 -30 4 -17 2 12 2 30 0 40 -3 9 -5 -1 -4 -23z"/>
<path d="M9634 8445 c0 -93 2 -133 3 -88 2 45 2 122 0 170 -1 48 -3 12 -3 -82z"/>
<path d="M4650 8586 c0 -2 8 -10 18 -17 15 -13 16 -12 3 4 -13 16 -21 21 -21
13z"/>
<path d="M2460 8494 c-208 -18 -431 -70 -610 -140 -154 -61 -190 -86 -192
-133 l-1 -36 -4 33 c-2 17 -8 32 -12 32 -12 0 -38 -33 -43 -56 -5 -18 -2 -22
18 -19 14 1 27 -2 30 -6 3 -5 -2 -9 -10 -9 -9 0 -16 -7 -16 -16 0 -10 -7 -14
-22 -12 -17 2 -24 11 -26 31 -4 34 -9 34 -58 1 -125 -85 -380 -334 -476 -464
-155 -211 -274 -457 -329 -680 -21 -86 -23 -117 -23 -335 0 -331 28 -477 141
-730 57 -127 63 -134 80 -102 14 28 70 180 114 312 16 50 36 104 43 120 8 17
38 80 66 140 29 61 66 139 82 174 39 83 178 325 189 329 5 2 9 8 9 14 0 25
223 333 322 444 195 218 365 386 477 472 71 55 268 191 416 288 39 26 88 59
110 74 22 14 82 49 133 76 97 50 172 106 172 128 0 17 -57 33 -177 50 -104 15
-328 26 -403 20z"/>
<path d="M9693 8430 c0 -36 2 -50 4 -32 2 17 2 47 0 65 -2 17 -4 3 -4 -33z"/>
<path d="M3265 8274 c-131 -58 -219 -102 -393 -196 -178 -98 -280 -163 -397
-256 -5 -4 -28 -21 -50 -37 -22 -17 -67 -52 -100 -78 -33 -27 -89 -73 -125
-101 -54 -44 -150 -138 -280 -275 -225 -236 -503 -668 -640 -996 -120 -289
-179 -497 -195 -695 -7 -84 -6 -86 25 -130 l31 -45 -41 44 c-23 26 -40 37 -40
28 0 -17 75 -119 114 -156 26 -25 36 -48 14 -35 -7 5 -8 3 -4 -5 5 -7 11 -10
14 -7 3 3 44 -31 91 -77 47 -45 112 -102 144 -126 31 -24 57 -48 57 -55 1 -19
190 -139 280 -178 105 -45 365 -119 403 -114 15 2 27 0 27 -4 0 -5 8 -6 18 -3
10 2 38 -3 62 -11 25 -9 65 -16 90 -16 24 0 92 -5 150 -12 88 -9 123 -9 220 5
212 30 304 47 380 68 41 11 85 23 97 26 12 3 27 11 34 19 9 11 -1 12 -56 9
-36 -3 -70 -7 -74 -9 -4 -3 -38 -10 -74 -16 -37 -6 -84 -19 -105 -30 -63 -33
-126 -38 -342 -30 -280 11 -439 42 -655 127 -122 48 -315 148 -356 185 -35 30
-24 29 21 -3 40 -27 239 -125 323 -158 307 -122 721 -152 1047 -75 112 26 270
76 309 98 18 10 33 42 67 146 36 110 92 232 162 355 7 11 49 99 95 196 47 97
100 201 120 230 19 30 48 78 63 108 66 122 359 469 380 448 4 -4 -12 -29 -37
-55 -76 -80 -86 -101 -15 -29 52 51 66 71 61 85 -27 62 -9 140 45 194 36 37
60 48 60 29 0 -5 -14 -21 -30 -35 -17 -14 -37 -38 -45 -53 -15 -29 -21 -103
-7 -103 4 0 21 23 37 51 17 28 36 56 43 62 14 11 -52 -106 -77 -137 -14 -17
-12 -17 16 2 22 16 30 28 26 39 -5 13 -2 15 12 9 11 -4 16 -4 13 -1 -9 9 126
130 230 208 93 70 93 69 68 199 -32 164 -147 452 -248 620 -125 207 -387 486
-574 610 -113 75 -335 188 -368 187 -11 0 -66 -20 -121 -45z m1125 -1571 c0
-5 -12 -14 -28 -20 l-27 -13 24 20 c25 22 31 24 31 13z m60 -17 c0 -2 -8 -10
-17 -17 -16 -13 -17 -12 -4 4 13 16 21 21 21 13z"/>
<path d="M10164 8262 c-103 -100 -168 -262 -181 -446 l-6 -89 34 7 c19 4 78
10 132 13 l97 6 0 284 c0 155 -4 283 -8 283 -5 0 -36 -26 -68 -58z"/>
<path d="M9733 8220 c0 -36 2 -50 4 -32 2 17 2 47 0 65 -2 17 -4 3 -4 -33z"/>
<path d="M930 8105 c-58 -57 -107 -110 -109 -117 -5 -16 152 136 191 185 16
20 28 37 26 37 -2 0 -51 -47 -108 -105z"/>
<path d="M9030 8156 c0 -2 7 -9 15 -16 13 -11 14 -10 9 4 -5 14 -24 23 -24 12z"/>
<path d="M9060 8113 c0 -12 49 -73 50 -62 0 3 -11 20 -25 39 -14 19 -25 29
-25 23z"/>
<path d="M969 8093 c-13 -16 -12 -17 4 -4 16 13 21 21 13 21 -2 0 -10 -8 -17
-17z"/>
<path d="M864 7988 c-56 -60 -71 -80 -53 -73 13 6 105 115 97 115 -2 0 -22
-19 -44 -42z"/>
<path d="M780 7889 c0 -5 5 -7 10 -4 6 3 10 8 10 11 0 2 -4 4 -10 4 -5 0 -10
-5 -10 -11z"/>
<path d="M9270 7789 c0 -4 7 -22 15 -40 8 -19 14 -27 14 -19 0 14 -28 72 -29
59z"/>
<path d="M10080 7520 c-134 -14 -310 -64 -190 -55 52 4 50 3 -30 -16 -47 -12
-87 -25 -90 -29 -3 -4 -16 -11 -30 -15 -109 -31 -283 -117 -373 -183 l-60 -44
24 -22 c13 -13 92 -87 175 -164 l152 -142 12 65 c12 62 65 193 75 183 3 -2
-11 -44 -31 -92 -21 -51 -34 -98 -31 -112 2 -13 1 -24 -3 -24 -22 0 6 -60 63
-132 106 -136 173 -247 275 -455 l97 -198 8 90 c9 99 16 140 22 133 3 -2 0
-59 -6 -127 -11 -113 -10 -126 9 -184 26 -77 79 -282 85 -322 2 -16 4 155 4
380 l1 410 -23 -170 c-13 -93 -33 -197 -44 -230 -12 -33 -19 -49 -16 -35 21
105 38 210 60 365 24 173 25 200 25 658 l-1 477 -42 -1 c-23 -1 -76 -5 -117
-9z m115 -40 c-16 -4 -39 -8 -50 -8 l-20 -1 20 9 c11 5 34 8 50 8 l30 0 -30
-8z m-217 -86 c12 -8 22 -20 22 -26 0 -7 -6 -4 -13 6 -10 14 -23 17 -50 14
-36 -4 -50 5 -24 15 23 10 42 7 65 -9z m-58 -164 c0 -5 -2 -10 -4 -10 -3 0 -8
5 -11 10 -3 6 -1 10 4 10 6 0 11 -4 11 -10z m68 -75 c-3 -3 -9 2 -12 12 -6 14
-5 15 5 6 7 -7 10 -15 7 -18z m32 -35 c6 -11 8 -20 6 -20 -3 0 -10 9 -16 20
-6 11 -8 20 -6 20 3 0 10 -9 16 -20z m-206 -48 c-13 -9 -85 -107 -108 -147
-15 -27 -16 -27 -10 -5 3 14 13 36 22 50 27 44 94 121 100 115 4 -3 2 -9 -4
-13z m381 -209 c-3 -8 2 -21 10 -29 8 -9 15 -25 14 -37 0 -21 -1 -21 -9 -2 -6
17 -8 14 -11 -15 -3 -27 -8 -15 -20 54 -15 88 -15 89 3 66 10 -13 16 -30 13
-37z m-26 -385 c0 -24 -4 -61 -9 -83 -7 -33 -8 -25 -7 42 1 46 5 83 10 83 4 0
7 -19 6 -42z m8 -160 c-2 -13 -4 -5 -4 17 -1 22 1 32 4 23 2 -10 2 -28 0 -40z
m-16 -170 l-11 -33 5 34 c3 18 6 57 7 85 l2 51 3 -52 c2 -28 -1 -66 -6 -85z"/>
<path d="M5845 7500 l-30 -8 27 -1 c15 0 30 4 33 9 3 6 5 9 3 9 -2 -1 -16 -5
-33 -9z"/>
<path d="M6170 7398 c-111 -31 -171 -50 -167 -54 2 -2 33 4 68 15 35 11 80 22
99 26 41 8 75 25 50 24 -8 -1 -31 -5 -50 -11z"/>
<path d="M5945 7324 l-30 -15 30 6 c17 4 34 11 40 16 13 13 -5 10 -40 -7z"/>
<path d="M5255 7220 c-3 -5 -2 -10 4 -10 5 0 13 5 16 10 3 6 2 10 -4 10 -5 0
-13 -4 -16 -10z"/>
<path d="M5434 7184 c-18 -14 -18 -15 4 -4 12 6 22 13 22 15 0 8 -5 6 -26 -11z"/>
<path d="M6155 7050 c11 -5 37 -9 57 -9 29 -1 262 -36 291 -44 4 -1 -118 -2
-270 -2 -220 0 -296 -4 -367 -17 -49 -10 -91 -20 -94 -23 -3 -3 17 -6 44 -6
45 -1 42 -2 -32 -14 -98 -15 -234 -54 -334 -94 -40 -17 -78 -27 -83 -24 -6 3
-7 2 -4 -4 3 -5 -10 -17 -29 -26 -47 -23 -57 -21 -14 3 19 11 32 19 29 20 -11
0 -159 -69 -159 -75 0 -3 13 1 30 10 16 8 33 15 37 15 4 -1 -9 -10 -30 -21
-21 -11 -43 -17 -49 -13 -7 4 -8 3 -4 -4 4 -8 0 -12 -10 -12 -34 0 -164 -74
-164 -93 0 -10 -4 -16 -9 -13 -5 3 -12 -49 -15 -117 -4 -67 -9 -139 -12 -159
-4 -23 -2 -38 5 -38 5 0 61 20 123 43 293 113 468 147 761 147 183 0 304 -12
474 -46 161 -32 396 -101 353 -103 -13 -1 -13 -2 0 -11 20 -13 33 -13 25 0 -8
12 11 6 97 -33 38 -16 65 -34 61 -40 -3 -6 -1 -7 5 -3 12 7 62 -13 62 -26 0
-5 4 -7 10 -3 5 3 18 -3 30 -15 11 -11 20 -17 20 -14 0 3 21 -7 48 -22 58 -34
212 -143 212 -150 0 -3 -6 -2 -12 2 -9 5 -8 2 1 -10 8 -9 20 -15 27 -12 7 3
18 -3 26 -12 12 -15 11 -16 -7 -3 -11 7 24 -29 77 -80 141 -138 302 -330 347
-416 21 -40 4 -24 -23 21 -25 43 -215 248 -216 233 0 -4 40 -50 89 -102 49
-52 112 -132 140 -177 58 -94 157 -291 166 -328 4 -18 0 -15 -12 10 -42 87
-156 290 -160 286 -3 -2 1 -15 8 -28 18 -34 5 -20 -36 42 -32 49 -33 51 -6 20
46 -53 37 -27 -16 48 -64 89 -190 232 -275 311 -129 119 -328 276 -328 258 0
-2 18 -16 40 -31 36 -23 185 -152 257 -221 27 -26 27 -27 3 -14 -14 7 -27 13
-30 14 -3 0 -30 21 -60 46 -91 78 -298 216 -402 270 -196 100 -358 150 -618
191 -202 32 -553 31 -735 -1 -171 -30 -416 -93 -486 -124 -51 -22 -57 -28 -62
-63 -4 -22 -7 -59 -7 -83 0 -37 3 -42 17 -37 25 10 434 125 461 131 13 2 31 6
40 9 114 35 480 44 667 18 101 -14 305 -60 320 -72 6 -5 27 -11 48 -15 20 -4
37 -11 37 -16 0 -5 6 -9 14 -9 24 0 184 -67 266 -111 120 -65 256 -159 392
-273 123 -103 278 -264 278 -289 0 -6 12 -25 26 -42 14 -16 22 -24 18 -16 -4
9 -3 12 4 7 6 -4 9 -13 6 -20 -3 -8 0 -17 7 -22 8 -4 10 -3 5 4 -4 7 -5 12 -3
12 21 0 172 -287 169 -323 0 -9 3 -15 8 -12 6 3 7 0 4 -8 -3 -8 1 -21 9 -29 8
-8 24 -32 36 -54 l22 -39 -7 35 c-9 50 9 28 35 -42 111 -305 127 -592 55 -988
-26 -142 -41 -198 -81 -293 -13 -32 -21 -63 -17 -69 4 -6 3 -8 -2 -5 -5 3 -23
-25 -39 -61 -61 -140 -207 -426 -247 -485 -97 -145 -252 -305 -425 -441 -35
-27 -63 -50 -63 -50 0 -1 40 -1 88 -1 84 0 90 -1 114 -27 14 -16 33 -28 42
-28 9 0 16 -4 16 -10 0 -8 -146 -15 -235 -11 -15 0 -12 -3 10 -14 l30 -15 -45
5 c-101 11 18 -16 180 -40 218 -33 312 -55 306 -72 -4 -9 1 -12 17 -8 12 3 44
10 71 15 142 31 308 150 470 338 154 179 160 184 77 62 -43 -64 -21 -49 31 21
52 70 222 405 285 559 34 85 62 150 63 144 0 -6 -7 -28 -15 -49 -9 -20 -13
-46 -10 -58 5 -18 4 -19 -5 -7 -10 12 -11 11 -6 -9 14 -64 -194 -469 -341
-662 -99 -131 -333 -353 -414 -392 -17 -8 -27 -17 -21 -21 21 -12 433 -25 549
-16 244 19 545 83 685 146 165 74 400 231 537 358 29 27 45 37 48 28 6 -15 77
47 136 118 20 25 41 45 46 45 25 0 169 214 259 386 74 140 122 264 151 389 33
145 33 147 21 130 -7 -11 -10 18 -10 97 0 61 -3 118 -6 127 -4 12 -20 16 -54
16 -66 0 -100 -14 -101 -42 -1 -17 -2 -19 -6 -5 -5 20 -19 22 -26 5 -3 -7 -6
1 -6 19 -1 35 -5 37 -120 93 -45 22 -66 28 -71 20 -5 -8 -9 -5 -12 7 -3 13
-61 46 -174 102 -314 154 -548 333 -740 565 l-41 49 -2 -57 c-2 -78 -31 -177
-75 -261 -22 -42 -40 -96 -47 -135 -5 -36 -15 -87 -21 -115 -6 -27 -12 -142
-14 -255 -1 -113 -7 -218 -13 -235 -9 -25 -10 -19 -7 38 2 37 3 67 1 65 -1 -2
-12 -41 -24 -88 -31 -120 -111 -336 -152 -412 -11 -21 -16 -38 -10 -38 5 0 33
46 61 103 43 83 51 95 47 63 -3 -21 -16 -56 -27 -78 -12 -22 -19 -43 -16 -45
4 -5 -28 -55 -87 -135 -24 -32 -34 -30 -17 4 11 22 10 22 -4 4 -9 -11 -16 -28
-16 -38 0 -10 -11 -25 -25 -34 -14 -9 -22 -20 -19 -25 2 -5 -37 -55 -88 -111
-50 -57 -81 -94 -67 -82 49 43 53 37 9 -16 -84 -103 -371 -374 -510 -482 -100
-77 -134 -88 -187 -59 -49 26 -186 71 -221 72 -15 0 -36 4 -47 9 -14 6 0 9 46
9 60 1 71 4 125 42 142 99 315 260 424 395 36 43 68 81 72 82 11 5 127 174
160 232 115 203 211 430 232 548 4 22 2 31 -5 26 -8 -4 -7 0 0 15 7 11 9 21 6
21 -3 0 -1 10 6 21 27 52 -12 2 -61 -76 -29 -47 -55 -83 -57 -81 -3 2 0 13 6
24 6 11 8 27 5 36 -3 8 4 24 16 36 21 21 130 197 130 209 -1 3 -10 -5 -20 -18
-27 -31 -25 -20 5 39 14 28 24 50 21 50 -8 0 -78 -126 -80 -145 -3 -22 -24
-65 -32 -65 -2 0 3 14 11 31 9 17 14 33 12 35 -7 8 -94 -158 -128 -244 -41
-102 -50 -108 -24 -15 3 10 -4 0 -15 -22 -11 -23 -17 -29 -14 -15 14 56 66
155 146 276 148 227 147 223 159 375 8 92 9 233 3 449 -12 408 -9 598 10 796
l16 162 -44 113 c-66 172 -114 271 -128 263 -7 -4 -8 -3 -4 5 9 14 -32 83 -44
76 -5 -3 -12 0 -16 6 -4 8 -3 9 4 5 19 -11 14 7 -9 34 -11 14 -18 19 -14 13 3
-7 4 -13 1 -13 -3 0 -10 10 -17 21 -8 16 -8 20 1 14 21 -13 -93 146 -139 194
-24 25 -37 37 -30 26 8 -11 -34 25 -92 81 -121 115 -242 210 -326 256 -32 17
-66 37 -77 44 -10 7 -24 10 -31 8 -7 -3 -33 4 -57 15 l-43 21 30 -25 c26 -22
18 -20 -55 13 -107 49 -247 99 -282 100 -15 1 -79 13 -143 27 -64 14 -129 25
-143 26 l-27 1 25 8 c19 6 12 7 -25 6 -27 0 -94 5 -147 12 -111 14 -414 15
-383 2z m940 -146 c36 -15 64 -28 62 -30 -3 -4 -128 44 -136 52 -10 9 12 3 74
-22z m410 -124 c3 -5 -10 -1 -29 11 -20 12 -36 23 -36 25 0 7 58 -25 65 -36z
m-2302 -87 c-7 -2 -19 -2 -25 0 -7 3 -2 5 12 5 14 0 19 -2 13 -5z m2378 -20
c13 -16 12 -17 -3 -4 -10 7 -18 15 -18 17 0 8 8 3 21 -13z m-2445 -8 c-11 -8
-26 -16 -33 -16 -22 -2 -27 -4 -60 -22 -18 -10 -33 -14 -33 -9 0 9 77 45 97
45 7 0 13 4 13 9 0 4 8 8 18 8 15 -1 15 -2 -2 -15z m2800 -327 l19 -23 -25 20
c-14 11 -27 21 -29 22 -2 2 0 3 6 3 5 0 18 -10 29 -22z m73 -103 c3 -6 -6 3
-21 20 -15 16 -28 34 -28 39 0 8 36 -36 49 -59z m171 -126 c15 -28 5 -23 -15
7 -9 15 -12 23 -6 20 6 -4 16 -16 21 -27z m-840 -164 c13 -14 21 -25 18 -25
-2 0 -15 11 -28 25 -13 14 -21 25 -18 25 2 0 15 -11 28 -25z m281 -432 c13
-16 12 -17 -3 -4 -10 7 -18 15 -18 17 0 8 8 3 21 -13z m192 -213 c30 -58 67
-138 82 -178 16 -39 30 -71 32 -69 4 5 -31 107 -52 146 -9 18 -14 35 -11 39 9
9 84 -159 121 -273 48 -146 76 -291 81 -420 l3 -110 -14 74 c-8 41 -12 77 -10
81 5 8 -22 177 -32 200 -4 8 -7 20 -8 25 0 6 -3 15 -6 20 -4 6 -9 27 -13 48
-8 42 -72 184 -188 417 -43 85 -69 144 -58 130 10 -14 44 -72 73 -130z m-302
73 c13 -16 12 -17 -3 -4 -10 7 -18 15 -18 17 0 8 8 3 21 -13z m234 -321 c4
-24 -5 -10 -24 43 -17 44 -30 89 -30 100 0 27 47 -96 54 -143z m145 13 c0 -5
-5 -3 -10 5 -5 8 -10 20 -10 25 0 6 5 3 10 -5 5 -8 10 -19 10 -25z m-120 -90
c0 -5 -5 -3 -10 5 -5 8 -10 20 -10 25 0 6 5 3 10 -5 5 -8 10 -19 10 -25z m248
-380 c0 -16 -2 -15 -8 5 -11 34 -11 60 0 35 5 -11 8 -29 8 -40z m1686 -621
c-9 -43 -20 -86 -26 -94 -7 -12 -8 -11 -4 5 2 11 7 38 11 60 8 49 27 116 32
112 2 -2 -4 -39 -13 -83z m-9 -186 c-26 -156 -44 -228 -32 -123 14 113 -15
-17 -53 -245 -60 -351 -94 -458 -194 -611 -48 -73 -181 -207 -193 -195 -3 2
20 37 50 78 31 40 67 95 82 123 22 42 24 51 11 60 -12 9 -9 16 18 41 53 51
151 344 186 559 25 152 88 375 106 375 6 0 17 28 24 62 25 115 21 41 -5 -124z
m-1074 -195 c-34 -102 -80 -207 -86 -201 -3 2 12 41 31 86 20 46 45 122 57
171 16 63 23 81 25 60 2 -16 -10 -68 -27 -116z m29 5 c-15 -67 -31 -120 -35
-116 -6 6 29 148 36 148 4 0 3 -15 -1 -32z m1007 -20 c-3 -7 -5 -2 -5 12 0 14
2 19 5 13 2 -7 2 -19 0 -25z m-1103 -17 c-4 -17 -9 -30 -11 -27 -3 2 -2 19 2
36 9 41 17 33 9 -9z m-17 -78 c-3 -10 -5 -4 -5 12 0 17 2 24 5 18 2 -7 2 -21
0 -30z m-793 -82 c-31 -69 -44 -78 -15 -10 10 24 21 53 25 63 4 10 9 16 12 13
3 -3 -7 -33 -22 -66z m853 27 c-3 -8 -6 -5 -6 6 -1 11 2 17 5 13 3 -3 4 -12 1
-19z m1117 -169 c-23 -65 -80 -179 -89 -179 -2 0 22 58 53 129 31 72 58 128
60 127 1 -2 -9 -36 -24 -77z m39 -343 c-21 -30 -39 -53 -42 -51 -4 5 68 105
75 105 3 0 -12 -24 -33 -54z m-458 -276 c-21 -22 -43 -40 -48 -40 -8 0 73 79
83 80 2 0 -14 -18 -35 -40z m-75 -140 c-29 -22 -129 -77 -117 -64 4 4 34 25
65 45 60 40 94 52 52 19z m-1647 -187 c-7 -2 -21 -2 -30 0 -10 3 -4 5 12 5 17
0 24 -2 18 -5z"/>
<path d="M9673 3833 c4 -3 3 -11 -2 -17 -5 -6 -5 -20 0 -31 7 -19 8 -19 8 2 1
12 4 28 7 37 4 10 1 16 -7 16 -7 0 -9 -3 -6 -7z"/>
<path d="M9191 7034 c12 -15 11 -16 -8 -10 -18 6 -30 -3 -70 -53 -48 -60 -133
-193 -133 -210 0 -5 -23 -51 -52 -102 -128 -233 -169 -419 -213 -970 -7 -84 3
-62 25 59 23 124 26 64 4 -85 -17 -112 -15 -132 20 -260 37 -133 170 -355 306
-512 89 -102 226 -216 385 -323 240 -160 474 -249 718 -273 l67 -7 0 511 c0
634 -13 753 -110 1041 -80 237 -141 361 -276 561 -112 166 -133 195 -142 192
-10 -3 -52 39 -52 51 0 6 11 -2 25 -19 13 -16 24 -25 25 -19 0 14 -45 56 -52
48 -4 -3 -29 23 -56 58 -28 34 -83 91 -124 125 -164 138 -336 256 -287 197z
m-380 -804 l-10 -25 0 27 c-1 14 2 35 6 45 7 17 8 17 11 -2 1 -12 -2 -32 -7
-45z m-14 -92 c-3 -8 -6 -5 -6 6 -1 11 2 17 5 13 3 -3 4 -12 1 -19z"/>
<path d="M373 6720 c0 -30 2 -43 4 -27 2 15 2 39 0 55 -2 15 -4 2 -4 -28z"/>
<path d="M4522 6639 c-36 -14 -243 -185 -209 -173 28 10 20 -1 -30 -40 -25
-20 -43 -36 -39 -36 4 0 47 33 95 73 132 110 183 151 200 164 21 15 11 23 -17
12z"/>
<path d="M362 6490 c0 -14 2 -19 5 -12 2 6 2 18 0 25 -3 6 -5 1 -5 -13z"/>
<path d="M4260 6440 c-14 -11 -20 -20 -14 -20 6 0 19 9 29 20 23 25 17 25 -15
0z"/>
<path d="M5675 6448 c-27 -5 -54 -14 -60 -19 -7 -7 0 -8 20 -2 17 4 134 7 260
7 179 -1 258 -6 358 -22 71 -11 131 -23 134 -26 3 -3 -25 -4 -63 -1 l-69 4 60
-10 c98 -17 84 -27 -17 -13 -51 7 -158 18 -238 23 -80 6 -176 14 -214 17 -41
3 -66 2 -62 -4 3 -5 74 -12 158 -16 174 -8 259 -18 408 -47 115 -23 316 -81
362 -105 17 -9 32 -13 35 -10 3 3 -25 18 -61 35 -36 16 -66 32 -66 34 0 2 19
1 43 -3 23 -5 43 -7 45 -5 7 7 -84 36 -125 40 -68 6 -65 15 3 11 62 -4 53 0
-56 24 -30 7 -60 17 -66 22 -7 5 -36 13 -65 18 -30 5 -92 16 -139 24 -179 33
-476 45 -585 24z m770 -68 c13 -5 14 -9 5 -9 -8 0 -24 4 -35 9 -13 5 -14 9 -5
9 8 0 24 -4 35 -9z m14 -26 c10 -9 -35 -3 -49 6 -11 8 -7 9 15 4 17 -4 32 -8
34 -10z m58 -10 c-3 -3 -12 -4 -19 -1 -8 3 -5 6 6 6 11 1 17 -2 13 -5z m-70
-10 c-3 -3 -12 -4 -19 -1 -8 3 -5 6 6 6 11 1 17 -2 13 -5z"/>
<path d="M372 6420 c0 -14 2 -19 5 -12 2 6 2 18 0 25 -3 6 -5 1 -5 -13z"/>
<path d="M5435 6410 c-186 -40 -331 -83 -308 -91 19 -8 14 -10 -37 -13 -14 -1
-34 -8 -45 -14 -19 -12 -19 -13 4 -6 16 4 21 3 16 -6 -4 -6 -17 -10 -28 -9
-33 4 -67 -10 -67 -28 0 -8 6 -13 13 -10 6 2 11 9 10 15 -2 6 4 9 11 6 8 -3
30 2 50 11 19 9 40 14 46 10 6 -3 9 -1 8 6 -2 8 14 16 42 20 25 4 83 22 130
39 46 17 126 40 176 50 132 27 145 31 138 41 -7 12 -8 12 -159 -21z m-258 -86
c-3 -3 -12 -4 -19 -1 -8 3 -5 6 6 6 11 1 17 -2 13 -5z"/>
<path d="M5555 6385 c-120 -18 -271 -52 -293 -65 -14 -10 -13 -10 8 -5 124 29
275 55 374 65 66 6 122 13 125 15 9 9 -125 3 -214 -10z"/>
<path d="M381 6371 c-1 -30 48 -251 60 -271 6 -10 7 -5 2 15 -3 17 -19 86 -34
155 -15 69 -28 114 -28 101z"/>
<path d="M401 6374 c0 -11 3 -14 6 -6 3 7 2 16 -1 19 -3 4 -6 -2 -5 -13z"/>
<path d="M4209 6363 c-13 -16 -12 -17 4 -4 16 13 21 21 13 21 -2 0 -10 -8 -17
-17z"/>
<path d="M426 6254 c14 -80 43 -178 50 -171 6 5 -47 230 -56 240 -4 5 -1 -27
6 -69z"/>
<path d="M4486 6285 c-223 -168 -419 -385 -583 -643 -37 -59 -93 -143 -124
-187 -65 -91 -129 -202 -111 -191 7 4 27 31 46 60 44 68 180 211 297 311 179
152 450 446 514 557 25 42 49 79 55 83 5 3 10 16 10 28 0 16 -3 18 -12 9 -17
-17 -29 -15 -22 3 10 24 -8 17 -70 -30z"/>
<path d="M5158 6283 c7 -3 16 -2 19 1 4 3 -2 6 -13 5 -11 0 -14 -3 -6 -6z"/>
<path d="M6740 6266 c0 -2 7 -6 15 -10 8 -3 15 -1 15 4 0 6 -7 10 -15 10 -8 0
-15 -2 -15 -4z"/>
<path d="M4075 6240 c-10 -11 -16 -22 -14 -24 2 -2 12 7 22 20 22 29 17 32 -8
4z"/>
<path d="M6796 6250 c5 -5 47 -28 94 -51 47 -22 114 -62 150 -88 67 -49 110
-75 110 -67 0 10 -171 124 -240 159 -41 21 -79 43 -84 48 -6 5 -17 9 -25 9
-10 0 -12 -3 -5 -10z"/>
<path d="M6939 6146 c8 -9 33 -27 55 -38 49 -24 29 -2 -29 33 -31 18 -37 19
-26 5z"/>
<path d="M4115 5715 c-169 -168 -305 -309 -301 -312 3 -3 -10 -28 -29 -55 -52
-72 -42 -69 27 8 117 130 243 256 291 291 26 19 45 38 42 43 -3 4 3 14 13 21
15 13 16 12 3 -3 -21 -28 -4 -21 46 17 25 19 43 35 39 35 -11 0 25 34 69 65
58 41 199 189 185 193 -6 2 -48 -24 -93 -58 l-82 -63 60 62 c33 33 54 61 48
61 -6 0 -149 -137 -318 -305z m205 171 c0 -2 -8 -10 -17 -17 -16 -13 -17 -12
-4 4 13 16 21 21 21 13z m-440 -430 c0 -2 -8 -10 -17 -17 -16 -13 -17 -12 -4
4 13 16 21 21 21 13z"/>
<path d="M5763 5969 c-248 -18 -521 -95 -748 -209 -206 -104 -215 -111 -266
-204 -78 -142 -227 -318 -400 -472 -143 -127 -263 -217 -452 -337 -84 -53
-162 -105 -174 -115 -37 -29 -54 -139 -60 -387 -4 -175 -2 -244 11 -335 65
-445 267 -859 552 -1130 284 -270 552 -413 909 -485 205 -42 441 -37 676 15
209 45 512 162 524 201 4 11 11 19 16 19 6 0 7 5 4 10 -4 6 7 10 25 10 18 0
43 9 57 20 14 11 32 20 39 20 8 0 14 4 14 9 0 5 17 17 38 26 20 10 51 28 69
41 17 13 37 24 43 24 7 0 27 15 45 33 19 17 45 42 57 54 36 32 121 80 136 75
6 -2 12 1 12 7 0 6 5 11 11 11 17 0 134 99 216 182 64 66 192 234 259 340 49
78 133 255 168 357 65 187 80 280 80 506 1 173 -2 215 -23 309 -74 349 -230
628 -496 891 -166 164 -316 273 -488 356 -265 126 -556 180 -854 158z m-330
-856 c-7 -2 -19 -2 -25 0 -7 3 -2 5 12 5 14 0 19 -2 13 -5z m-60 -10 c-7 -2
-19 -2 -25 0 -7 3 -2 5 12 5 14 0 19 -2 13 -5z m494 -19 c-3 -3 -12 -4 -19 -1
-8 3 -5 6 6 6 11 1 17 -2 13 -5z m46 -11 c-7 -2 -19 -2 -25 0 -7 3 -2 5 12 5
14 0 19 -2 13 -5z m-693 -53 c-34 -11 -60 -11 -35 0 11 5 29 8 40 8 16 0 15
-2 -5 -8z m117 4 c-3 -3 -12 -4 -19 -1 -8 3 -5 6 6 6 11 1 17 -2 13 -5z m-267
-8 c0 -2 -7 -7 -16 -10 -8 -3 -12 -2 -9 4 6 10 25 14 25 6z m99 -36 c-172 -49
-220 -71 -344 -154 l-100 -67 50 52 c40 41 43 47 15 26 -39 -30 -188 -181
-239 -242 l-33 -40 31 45 c36 52 185 205 245 253 22 18 37 26 33 20 -5 -7 -4
-13 2 -13 5 0 13 4 16 10 22 35 284 148 316 135 8 -3 33 -1 54 4 105 24 75 6
-46 -29z m-169 5 c0 -2 -13 -11 -30 -20 -38 -19 -40 -11 -2 9 31 17 32 18 32
11z m475 -15 c-11 -5 -40 -9 -65 -10 -66 -1 -204 -34 -306 -72 -122 -46 -237
-117 -349 -215 -161 -142 -246 -275 -322 -506 -15 -42 -28 -75 -31 -73 -2 3 1
19 7 37 16 46 5 48 -16 3 -15 -33 -18 -64 -17 -204 2 -143 5 -178 28 -265 14
-55 44 -137 66 -182 37 -79 47 -114 16 -55 -8 15 -15 20 -15 12 -1 -8 13 -40
30 -70 16 -30 24 -48 16 -40 -20 21 -91 163 -123 245 -34 89 -53 161 -55 205
-1 32 -2 33 -9 10 -6 -18 -9 -5 -11 50 -8 180 9 288 67 452 29 80 89 207 106
223 5 6 -6 -23 -26 -63 -36 -71 -91 -230 -84 -238 5 -5 58 129 58 145 0 7 4 9
10 6 6 -4 7 1 3 11 -5 13 -3 15 7 9 8 -5 11 -4 6 3 -8 13 24 83 35 76 4 -2 11
1 15 7 4 8 3 9 -4 5 -7 -4 -12 -5 -12 -2 0 14 104 157 150 206 l51 55 -51 -65
c-111 -142 -102 -151 24 -24 124 123 196 179 301 232 64 32 163 65 175 57 3
-2 29 3 56 11 85 26 324 48 269 24z m-560 -36 c-26 -20 -55 -36 -55 -30 0 5
63 46 70 46 3 -1 -4 -8 -15 -16z m1417 -46 c21 -16 42 -27 47 -24 5 3 14 -1
21 -9 7 -8 9 -15 5 -15 -5 0 0 -10 11 -21 17 -19 -65 38 -142 99 -26 20 -27
21 -4 11 14 -7 42 -25 62 -41z m148 -110 c29 -35 41 -52 26 -38 -28 25 -91
100 -84 100 2 0 28 -28 58 -62z m-25 -108 c7 0 51 -41 98 -91 78 -82 85 -87
71 -52 l-15 38 25 -29 c13 -16 39 -60 57 -97 45 -92 49 -80 5 15 -19 42 -33
76 -31 76 2 0 17 -24 33 -52 39 -69 70 -161 76 -230 3 -30 8 -63 11 -74 4 -10
-3 -3 -15 16 -18 29 -20 31 -16 10 16 -84 36 -214 40 -270 l5 -65 -9 55 c-28
166 -34 192 -41 174 -5 -14 -9 -9 -14 23 -4 24 -17 54 -30 67 -12 13 -32 50
-45 82 -13 33 -32 76 -42 98 -12 23 -14 35 -7 30 17 -10 -47 104 -74 134 -21
22 -21 23 -2 16 18 -7 19 -6 5 11 -8 10 -36 40 -62 65 -27 26 -48 53 -47 61 0
10 2 11 6 2 2 -7 10 -13 18 -13z m130 -10 c10 -11 16 -20 13 -20 -3 0 -13 9
-23 20 -10 11 -16 20 -13 20 3 0 13 -9 23 -20z m-2198 -672 c-3 -7 -5 -2 -5
12 0 14 2 19 5 13 2 -7 2 -19 0 -25z m16 -173 c4 -63 3 -85 -2 -60 -12 60 -22
203 -12 180 5 -11 11 -65 14 -120z m40 -55 c3 -11 1 -18 -4 -14 -5 3 -9 12 -9
20 0 20 7 17 13 -6z m2420 -90 c4 -64 3 -90 -4 -80 -7 11 -8 3 -4 -25 3 -27 2
-33 -3 -20 -8 17 -10 14 -16 -17 -4 -21 -18 -61 -32 -90 -13 -29 -22 -44 -20
-33 3 11 19 79 35 151 17 72 31 151 31 174 0 72 7 41 13 -60z m-16 -172 c-3
-8 -6 -5 -6 6 -1 11 2 17 5 13 3 -3 4 -12 1 -19z m-13 -52 c-3 -15 -8 -25 -11
-23 -2 3 -1 17 3 31 3 15 8 25 11 23 2 -3 1 -17 -3 -31z m274 -112 c21 -6 21
-7 5 -20 -16 -12 -14 -13 12 -4 17 6 40 15 51 21 12 6 30 9 40 7 12 -2 -2 -12
-41 -26 -111 -43 -183 -81 -267 -140 -46 -33 -101 -69 -121 -81 -21 -12 -50
-29 -65 -38 -25 -15 -25 -14 3 10 17 15 25 26 18 27 -6 0 -25 -12 -42 -26 -46
-39 -37 -14 12 32 58 55 96 85 78 62 -22 -29 -2 -20 48 20 25 22 58 47 73 57
15 9 26 21 23 25 -3 4 1 7 8 6 6 0 12 2 12 7 0 9 51 40 90 55 37 13 35 13 63
6z m187 -23 c-6 -5 -62 -37 -125 -71 -63 -34 -129 -73 -147 -86 -35 -26 -48
-31 -37 -12 4 7 -7 2 -24 -11 -18 -12 -36 -30 -41 -39 -5 -9 -33 -35 -61 -57
-28 -22 -58 -52 -66 -67 -18 -34 -32 -36 -43 -5 -8 19 -1 30 42 75 57 59 174
152 253 201 53 32 82 42 48 16 -10 -8 5 -3 35 11 29 14 67 28 85 29 17 2 42 8
56 14 32 13 36 13 25 2z m-2675 -101 c40 -50 116 -132 169 -182 53 -51 78 -78
56 -61 -52 41 -201 194 -250 258 -57 74 -58 75 -53 75 3 0 38 -41 78 -90z
m2054 -114 c-9 -30 -28 -67 -41 -83 l-25 -28 20 35 c10 19 27 59 38 87 24 69
31 60 8 -11z m-1876 22 c7 -7 12 -9 12 -5 0 4 45 -29 101 -73 217 -173 371
-258 529 -290 52 -11 179 -25 283 -31 179 -11 235 -8 366 16 21 4 19 2 -9 -11
-124 -58 -388 -69 -655 -28 -60 10 -31 -11 35 -24 30 -7 82 -15 115 -19 42 -4
54 -8 40 -14 -11 -4 59 -8 155 -8 132 -1 171 -4 162 -13 -18 -18 -157 -22
-304 -9 -157 14 -318 48 -297 63 9 6 2 7 -21 3 -23 -4 -30 -3 -22 3 11 7 7 11
-13 16 -14 4 -31 4 -37 0 -6 -4 -8 -3 -5 3 3 5 -11 18 -31 27 -67 32 -181 108
-302 203 -8 7 -10 13 -4 13 5 0 19 -8 30 -18 82 -75 327 -198 434 -219 43 -8
18 4 -75 36 -100 35 -251 115 -305 162 -30 27 -31 28 -5 11 45 -29 115 -64
150 -73 28 -8 29 -7 10 7 -11 8 -67 46 -125 84 -102 68 -256 199 -234 200 5 0
15 -5 22 -12z m2167 -8 c-10 -11 -23 -20 -29 -20 -6 0 0 9 14 20 32 25 38 25
15 0z m-350 -77 c-10 -15 -34 -41 -54 -58 -31 -25 -29 -22 12 22 26 29 47 58
47 64 0 7 3 10 6 6 3 -3 -2 -18 -11 -34z m266 -20 c-17 -31 -89 -108 -95 -102
-4 4 92 117 102 118 1 1 -2 -7 -7 -16z m-211 -7 c0 -3 -4 -8 -10 -11 -5 -3
-10 -1 -10 4 0 6 5 11 10 11 6 0 10 -2 10 -4z m-420 -220 c-14 -7 -36 -16 -50
-20 -14 -3 -7 3 15 13 45 22 73 27 35 7z"/>
<path d="M5120 4990 c-18 -12 -2 -12 25 0 13 6 15 9 5 9 -8 0 -22 -4 -30 -9z"/>
<path d="M4779 4727 c-68 -57 -186 -178 -231 -237 -24 -33 -62 -110 -53 -110
2 0 18 27 36 60 32 61 189 231 279 303 25 20 43 37 39 37 -3 0 -34 -24 -70
-53z"/>
<path d="M4472 4345 c-17 -37 -14 -45 4 -12 9 16 14 31 11 33 -2 2 -9 -7 -15
-21z"/>
<path d="M6731 4275 c1 -19 18 -51 18 -35 0 8 -4 22 -9 30 -5 8 -9 11 -9 5z"/>
<path d="M7050 3314 l-25 -15 25 7 c14 3 32 10 40 15 13 7 13 8 0 8 -8 0 -26
-6 -40 -15z"/>
<path d="M6959 3243 c-13 -17 -13 -17 6 -3 11 8 22 16 24 17 2 2 0 3 -6 3 -6
0 -17 -8 -24 -17z"/>
<path d="M6890 3194 c-54 -43 -61 -50 -35 -36 23 13 92 71 85 72 -3 0 -25 -16
-50 -36z"/>
<path d="M7170 3260 c-19 -11 -30 -19 -25 -19 6 0 26 8 45 19 19 11 31 19 25
19 -5 0 -26 -8 -45 -19z"/>
<path d="M6865 3072 c-16 -11 -37 -27 -45 -37 -14 -17 -14 -17 5 -7 24 14 82
62 75 62 -3 0 -18 -8 -35 -18z"/>
<path d="M5368 2663 c7 -3 16 -2 19 1 4 3 -2 6 -13 5 -11 0 -14 -3 -6 -6z"/>
<path d="M5458 2643 c6 -2 18 -2 25 0 6 3 1 5 -13 5 -14 0 -19 -2 -12 -5z"/>
<path d="M5538 2633 c7 -3 16 -2 19 1 4 3 -2 6 -13 5 -11 0 -14 -3 -6 -6z"/>
<path d="M4444 5901 c-28 -26 -134 -115 -235 -198 -211 -173 -229 -190 -336
-334 -106 -141 -102 -132 -62 -124 19 4 44 13 56 21 12 8 28 11 36 9 7 -3 24
3 37 15 13 11 31 20 41 20 10 0 20 4 24 9 7 13 64 41 84 42 13 0 13 2 -2 7
-14 6 -5 14 42 37 33 17 60 33 61 37 0 4 24 31 53 60 29 29 72 80 94 114 45
65 132 233 138 264 2 10 9 28 15 40 19 35 8 31 -46 -19z"/>
<path d="M541 5840 c14 -31 19 -36 19 -24 0 6 -7 19 -16 30 -14 18 -14 18 -3
-6z"/>
<path d="M3801 5321 c-34 -38 -61 -73 -61 -77 1 -5 11 3 23 17 12 15 42 50 65
78 65 75 44 62 -27 -18z"/>
<path d="M3920 5254 c-22 -10 -36 -11 -38 -5 -2 7 -14 5 -32 -4 -16 -8 -37
-15 -47 -15 -12 0 -14 -3 -7 -10 8 -8 20 -7 40 0 27 10 28 10 12 -6 -9 -9 -28
-16 -42 -16 -14 0 -31 -8 -38 -17 -10 -13 -10 -14 2 -3 21 18 32 14 20 -8 -9
-17 -8 -19 7 -13 10 4 43 25 74 47 31 23 65 46 75 53 26 16 16 15 -26 -3z"/>
<path d="M3646 5231 c-4 -7 -5 -15 -2 -18 9 -9 19 4 14 18 -4 11 -6 11 -12 0z"/>
<path d="M3922 5223 c-24 -5 -134 -103 -115 -103 6 0 33 20 61 45 27 25 55 45
60 45 6 0 14 5 17 10 3 6 5 9 3 9 -2 -1 -13 -4 -26 -6z"/>
<path d="M3696 5204 c-19 -18 -21 -37 -4 -32 10 4 32 48 23 48 -2 0 -11 -7
-19 -16z"/>
<path d="M3220 4890 c-45 -24 -28 -24 25 0 22 10 33 19 25 19 -8 0 -31 -8 -50
-19z"/>
<path d="M3128 4873 c7 -3 16 -2 19 1 4 3 -2 6 -13 5 -11 0 -14 -3 -6 -6z"/>
<path d="M3058 4853 c7 -3 16 -2 19 1 4 3 -2 6 -13 5 -11 0 -14 -3 -6 -6z"/>
<path d="M3298 4456 c-16 -5 -28 -13 -28 -18 0 -11 18 -10 25 2 3 6 14 10 23
10 12 -1 9 -5 -9 -15 -15 -8 -28 -22 -31 -32 -16 -66 -4 -411 19 -563 l7 -45
7 55 c9 73 9 203 0 170 l-7 -25 -7 25 c-4 14 -6 52 -5 85 l1 60 7 -60 c5 -46
7 -23 10 95 2 102 5 141 10 115 6 -34 7 -28 9 36 0 41 5 79 10 85 17 17 -11
31 -41 20z"/>
<path d="M3371 4408 c1 -55 5 -50 11 15 2 20 0 37 -4 37 -4 0 -7 -24 -7 -52z"/>
<path d="M2868 4423 c7 -3 16 -2 19 1 4 3 -2 6 -13 5 -11 0 -14 -3 -6 -6z"/>
<path d="M3210 4400 c-14 -5 -44 -14 -67 -20 -29 -7 -42 -16 -41 -28 0 -9 -9
-94 -21 -189 -25 -195 -25 -363 2 -638 24 -242 49 -342 186 -735 113 -322 369
-694 701 -1018 90 -88 276 -232 299 -232 10 0 26 -8 37 -17 11 -10 31 -25 45
-33 37 -22 225 -128 316 -179 45 -25 80 -47 78 -49 -2 -2 -47 19 -100 48 -53
29 -99 50 -101 47 -6 -6 80 -67 94 -67 6 0 12 -3 14 -7 6 -16 106 -62 187 -87
88 -28 119 -29 54 -3 -90 36 -136 58 -131 62 2 2 51 -14 109 -36 157 -61 345
-90 459 -70 35 6 112 5 217 -2 186 -12 415 1 473 27 19 8 31 15 26 16 -6 0 -6
4 0 10 5 5 73 19 151 30 179 26 271 49 390 100 180 77 433 245 631 419 56 49
139 149 130 155 -6 5 -198 56 -208 56 -6 0 -57 -34 -113 -76 -56 -41 -118 -84
-137 -96 l-35 -20 40 36 40 37 -45 -31 c-25 -17 -45 -35 -45 -40 0 -5 -4 -12
-9 -17 -5 -5 -6 -3 -2 5 13 22 -6 13 -86 -39 -77 -51 -99 -70 -55 -49 21 11
21 11 2 -5 -11 -8 -25 -13 -32 -11 -7 3 -15 0 -19 -6 -5 -7 -2 -8 6 -3 9 6 11
4 6 -4 -5 -7 -15 -10 -23 -7 -8 3 -11 2 -8 -4 7 -12 -32 -33 -47 -24 -6 4 -8
3 -5 -3 3 -5 -22 -25 -56 -45 -71 -40 -101 -52 -92 -38 9 14 7 14 -92 -29
-437 -190 -892 -227 -1306 -106 -119 34 -391 145 -297 121 14 -4 -10 12 -53
34 -43 22 -83 38 -89 34 -6 -4 -8 -3 -5 3 4 6 -9 20 -29 32 -40 24 -48 26 -38
9 4 -7 3 -8 -5 -4 -6 4 -9 11 -6 15 2 5 -18 27 -45 50 -51 43 -71 53 -49 24 7
-10 -24 18 -69 62 -45 44 -82 82 -82 84 0 3 27 -21 60 -54 33 -33 60 -54 60
-47 0 8 15 2 38 -15 l37 -27 -29 32 c-17 18 -26 32 -21 32 4 0 0 10 -11 23
l-19 22 22 -19 c13 -10 21 -21 19 -25 -2 -3 31 -30 73 -59 l76 -54 -46 44
c-25 23 -81 77 -125 118 -87 83 -80 78 45 -29 84 -72 193 -144 217 -144 7 0
11 -4 8 -9 -3 -4 0 -9 5 -9 6 -1 14 -2 19 -3 13 -3 116 -58 157 -84 56 -35
177 -78 292 -102 127 -27 449 -38 608 -21 272 30 505 101 777 237 196 98 248
127 311 177 21 16 41 27 44 24 8 -9 64 33 58 42 -2 4 9 21 25 36 17 16 30 25
30 20 0 -5 11 2 25 15 22 21 23 25 10 33 -12 6 -29 -2 -62 -29 -39 -32 -121
-93 -183 -137 -39 -28 21 24 108 93 50 40 92 76 92 79 0 4 -42 21 -92 38 l-93
31 -40 -24 c-184 -113 -451 -210 -705 -256 -144 -25 -506 -36 -667 -19 -132
14 -371 67 -516 116 -138 46 -288 115 -280 128 3 6 1 7 -5 3 -21 -13 -321 171
-347 214 -4 6 29 -16 72 -48 81 -61 201 -134 153 -93 -14 12 -38 33 -53 47
-53 47 -110 84 -120 77 -6 -3 -7 -1 -3 5 4 7 -7 20 -29 33 -20 12 -34 24 -31
26 2 3 37 -18 78 -47 283 -199 363 -239 684 -346 123 -41 226 -74 231 -74 14
1 -138 59 -210 81 -38 11 -67 23 -64 25 3 3 63 -14 133 -38 71 -23 148 -42
171 -43 22 0 39 -3 37 -7 -3 -4 28 -6 68 -5 40 1 118 -2 173 -7 113 -9 460 13
625 41 33 6 34 6 10 13 -21 7 -22 8 -4 9 41 2 181 43 256 75 43 19 123 60 179
91 96 54 101 59 78 68 -13 6 -67 11 -119 11 -77 0 -110 -5 -175 -26 -43 -15
-81 -26 -82 -24 -7 6 198 78 222 79 24 0 25 1 10 17 -15 17 -20 17 -58 4 -23
-8 -53 -22 -67 -32 -28 -18 -59 -24 -137 -26 -28 0 -50 -3 -48 -6 2 -3 -9 -6
-23 -6 -35 -2 -194 -45 -188 -51 2 -3 30 3 61 12 67 19 138 29 115 16 -8 -5
-31 -12 -50 -16 -19 -4 -46 -12 -60 -18 -24 -10 -123 -31 -200 -43 -27 -4 -32
-3 -20 6 17 12 -113 5 -205 -11 -169 -31 -331 -37 -450 -16 -38 7 -92 9 -120
6 -27 -3 -41 -7 -30 -8 12 -2 15 -5 7 -8 -19 -8 -167 33 -266 72 -48 20 -91
33 -95 31 -4 -3 -34 8 -67 25 -32 17 -54 26 -48 20 5 -6 26 -19 45 -30 19 -10
57 -31 84 -47 28 -16 127 -54 220 -86 94 -31 166 -57 160 -57 -19 -1 -190 49
-268 78 -44 16 -85 27 -92 25 -24 -10 -306 148 -291 163 3 3 11 1 18 -4 13
-10 56 -28 48 -20 -9 9 -95 73 -107 80 -9 6 -11 3 -7 -7 3 -9 1 -16 -5 -16 -6
0 -11 3 -11 8 0 4 -45 41 -100 82 -54 41 -99 80 -100 85 -1 12 -85 95 -162
160 -59 49 -75 51 -36 6 12 -14 7 -11 -12 7 -25 24 -32 35 -22 40 9 6 6 14
-13 32 -23 22 -55 35 -55 23 0 -5 88 -122 108 -142 7 -8 20 -24 29 -37 8 -13
20 -24 26 -24 7 0 7 4 -1 12 -21 21 -13 32 8 13 15 -14 17 -21 8 -26 -9 -6 -8
-12 2 -26 8 -10 -1 -4 -19 12 -28 25 -182 207 -254 301 -10 13 -23 22 -28 19
-4 -3 -31 29 -58 72 -132 206 -195 303 -197 303 -5 0 70 -164 131 -288 37 -73
65 -137 63 -143 -2 -5 -36 55 -77 133 -40 79 -82 155 -92 170 -21 29 -25 43
-9 33 14 -9 12 1 -6 36 -8 17 -18 29 -21 26 -2 -3 0 -15 7 -26 6 -12 8 -21 5
-21 -10 0 -64 120 -108 240 -56 156 -84 270 -92 380 -3 47 -13 141 -21 210 -8
69 -17 216 -21 328 -3 111 -9 202 -12 201 -3 0 -17 -4 -31 -9z m537 -1727 c50
-85 65 -113 59 -113 -3 0 -38 58 -103 173 -2 4 -2 7 0 7 3 0 23 -30 44 -67z
m13 -73 c22 -44 38 -80 35 -80 -3 0 -23 36 -45 80 -22 44 -38 80 -35 80 3 0
23 -36 45 -80z m161 17 c12 -22 12 -22 -10 -3 -11 11 -21 23 -21 28 0 14 19
-1 31 -25z m-151 -87 c6 -11 8 -20 6 -20 -3 0 -10 9 -16 20 -6 11 -8 20 -6 20
3 0 10 -9 16 -20z m367 -185 c32 -30 61 -55 66 -55 4 0 7 -7 7 -16 0 -17 -101
65 -125 103 -23 35 -12 28 52 -32z m-197 -42 c0 5 -5 18 -11 30 -16 31 2 11
45 -53 l38 -55 -35 40 c-20 22 -36 36 -37 32 -1 -23 203 -271 309 -377 42 -40
69 -70 61 -65 -38 22 -104 82 -138 125 -20 25 -41 48 -47 50 -11 3 -164 210
-208 280 -27 43 -27 44 -3 15 14 -16 26 -26 26 -22z m485 -111 c-3 -3 -11 0
-18 7 -9 10 -8 11 6 5 10 -3 15 -9 12 -12z m343 -141 c34 -13 60 -26 58 -28
-6 -7 -76 19 -111 40 -16 10 -25 17 -20 15 6 -2 38 -14 73 -27z m-533 -52 c39
-43 39 -43 -15 6 -30 27 -57 51 -60 53 -3 3 4 0 15 -6 11 -6 38 -30 60 -53z
m598 -27 c37 -14 65 -27 63 -29 -7 -7 -148 45 -161 59 -7 8 -5 9 10 3 11 -4
50 -19 88 -33z m107 17 c25 -14 -9 -10 -50 7 l-35 14 35 -6 c19 -4 42 -10 50
-15z m880 11 c-8 -5 -22 -9 -30 -9 -10 0 -8 3 5 9 27 12 43 12 25 0z m-1560
-55 c19 -19 32 -35 29 -35 -3 0 -20 16 -39 35 -19 19 -32 35 -29 35 3 0 20
-16 39 -35z m1273 8 c-7 -2 -21 -2 -30 0 -10 3 -4 5 12 5 17 0 24 -2 18 -5z
m1397 -57 c0 -2 -12 -12 -27 -21 l-28 -18 19 21 c17 20 36 29 36 18z m-1617
-23 c-13 -2 -33 -2 -45 0 -13 2 -3 4 22 4 25 0 35 -2 23 -4z m795 0 c-10 -2
-28 -2 -40 0 -13 2 -5 4 17 4 22 1 32 -1 23 -4z m-660 -10 c-15 -2 -42 -2 -60
0 -18 2 -6 4 27 4 33 0 48 -2 33 -4z m555 0 c-13 -2 -33 -2 -45 0 -13 2 -3 4
22 4 25 0 35 -2 23 -4z m-480 -10 c-7 -2 -19 -2 -25 0 -7 3 -2 5 12 5 14 0 19
-2 13 -5z m352 -3 c-65 -11 -223 -10 -255 0 -15 5 44 8 140 8 116 -1 150 -3
115 -8z m-1514 -27 c13 -16 12 -17 -3 -4 -17 13 -22 21 -14 21 2 0 10 -8 17
-17z m2454 -83 c-3 -5 -16 -15 -28 -21 -19 -9 -19 -8 3 10 28 23 34 26 25 11z
m-55 -35 c0 -2 -10 -9 -22 -15 -22 -11 -22 -10 -4 4 21 17 26 19 26 11z m-380
-215 c-46 -25 -191 -82 -196 -77 -3 2 28 16 68 31 40 15 89 36 108 46 19 11
40 19 45 19 6 0 -6 -9 -25 -19z m-235 -95 c-16 -8 -37 -14 -45 -14 -8 0 1 7
20 14 46 18 64 17 25 0z"/>
<path d="M3064 4352 c-6 -4 -14 -32 -17 -62 -3 -30 -13 -113 -21 -185 -20
-162 -20 -385 0 -440 12 -37 13 -25 10 129 -4 165 -1 201 37 469 14 96 13 104
-9 89z"/>
<path d="M965 3910 c3 -5 8 -10 11 -10 2 0 4 5 4 10 0 6 -5 10 -11 10 -5 0 -7
-4 -4 -10z"/>
<path d="M1002 3884 c10 -10 20 -15 24 -12 3 4 -5 12 -18 18 -22 12 -22 12 -6
-6z"/>
<path d="M2979 3843 c-3 -10 -2 -63 2 -118 l5 -100 2 118 c2 111 -1 139 -9
100z"/>
<path d="M8166 3784 c-9 -24 -2 -26 12 -4 7 11 8 20 3 20 -5 0 -12 -7 -15 -16z"/>
<path d="M8076 3725 c-9 -26 -7 -32 5 -12 6 10 9 21 6 23 -2 3 -7 -2 -11 -11z"/>
<path d="M3041 3598 c0 -16 2 -28 7 -28 4 0 8 -21 10 -48 5 -78 41 -275 67
-369 39 -134 126 -395 131 -390 3 3 -21 83 -52 178 -31 96 -65 206 -75 244
-28 104 -59 294 -59 361 0 39 -3 54 -9 45 -7 -11 -10 -9 -14 10 -4 23 -4 22
-6 -3z"/>
<path d="M3370 3567 c0 -20 4 -38 9 -42 6 -3 7 10 4 32 -8 50 -13 55 -13 10z"/>
<path d="M10181 3543 c-1 -6 -4 -20 -7 -30 -5 -17 -5 -17 6 0 6 10 9 23 6 30
-3 9 -5 9 -5 0z"/>
<path d="M1326 3300 c-5 -51 -3 -131 3 -200 6 -63 11 -123 11 -132 0 -10 7
-18 16 -18 12 0 14 7 10 28 -2 15 -8 45 -12 67 -4 22 -10 108 -13 190 l-7 150
-8 -85z"/>
<path d="M8466 3225 c-9 -26 -7 -32 5 -12 6 10 9 21 6 23 -2 3 -7 -2 -11 -11z"/>
<path d="M3466 3127 c3 -10 9 -15 12 -12 3 3 0 11 -7 18 -10 9 -11 8 -5 -6z"/>
<path d="M7447 2972 c-31 -43 -74 -94 -94 -113 -21 -19 -30 -25 -20 -13 28 34
19 40 -13 9 -16 -16 -30 -25 -30 -21 0 13 -29 -14 -52 -48 -15 -23 -11 -21 16
9 19 22 35 35 36 30 0 -15 -75 -87 -83 -80 -4 3 -5 2 -2 -2 3 -4 -9 -22 -27
-42 l-33 -35 30 18 c26 15 24 12 -11 -21 -22 -21 -65 -60 -95 -86 l-54 -48 75
53 c94 66 293 263 347 343 39 59 77 125 70 125 -1 0 -29 -35 -60 -78z"/>
<path d="M3520 3025 c0 -5 5 -17 10 -25 5 -8 10 -10 10 -5 0 6 -5 17 -10 25
-5 8 -10 11 -10 5z"/>
<path d="M3670 2931 c0 -6 4 -13 10 -16 6 -3 7 1 4 9 -7 18 -14 21 -14 7z"/>
<path d="M8099 2893 l-24 -28 28 24 c15 14 27 26 27 28 0 8 -8 1 -31 -24z"/>
<path d="M1485 2860 c11 -5 27 -9 35 -9 13 -1 13 0 0 9 -8 5 -24 9 -35 9 l-20
0 20 -9z"/>
<path d="M1585 2830 c3 -5 11 -10 16 -10 6 0 7 5 4 10 -3 6 -11 10 -16 10 -6
0 -7 -4 -4 -10z"/>
<path d="M3750 2811 c0 -6 4 -13 10 -16 6 -3 7 1 4 9 -7 18 -14 21 -14 7z"/>
<path d="M3730 2780 c6 -11 13 -20 16 -20 2 0 0 9 -6 20 -6 11 -13 20 -16 20
-2 0 0 -9 6 -20z"/>
<path d="M3785 2760 c3 -5 8 -10 11 -10 2 0 4 5 4 10 0 6 -5 10 -11 10 -5 0
-7 -4 -4 -10z"/>
<path d="M3800 2736 c0 -2 8 -10 18 -17 15 -13 16 -12 3 4 -13 16 -21 21 -21
13z"/>
<path d="M3270 2715 c0 -5 5 -17 10 -25 5 -8 10 -10 10 -5 0 6 -5 17 -10 25
-5 8 -10 11 -10 5z"/>
<path d="M3830 2696 c0 -2 8 -10 18 -17 15 -13 16 -12 3 4 -13 16 -21 21 -21
13z"/>
<path d="M3296 2657 c3 -10 9 -15 12 -12 3 3 0 11 -7 18 -10 9 -11 8 -5 -6z"/>
<path d="M3180 2577 c0 -13 41 -89 46 -84 2 2 -7 24 -21 48 -13 24 -25 40 -25
36z"/>
<path d="M1007 2425 c-72 -20 -156 -64 -174 -91 -11 -17 -13 -36 -9 -68 7 -42
4 -48 -50 -127 -180 -263 -265 -613 -234 -959 23 -267 23 -270 11 -270 -6 0
-11 -12 -11 -27 0 -37 44 -219 63 -263 8 -19 23 -64 32 -100 9 -36 27 -85 41
-109 30 -54 33 -88 4 -51 -30 38 -24 13 18 -71 l37 -75 -26 13 c-46 23 -106
98 -150 185 -22 46 -47 90 -54 98 -21 24 -111 209 -134 275 -25 74 -56 221
-70 340 -18 147 -14 423 7 557 11 65 15 115 10 112 -31 -19 -113 -243 -145
-393 -25 -119 -27 -142 -27 -391 0 -154 5 -290 11 -325 6 -33 25 -136 42 -230
17 -93 37 -188 45 -210 8 -22 29 -78 46 -125 18 -47 34 -93 37 -102 5 -17 70
-18 1189 -18 l1183 0 21 67 c65 212 77 568 28 842 l-12 64 -70 31 c-220 96
-363 194 -547 376 -139 137 -305 350 -295 377 3 7 0 12 -7 10 -7 -1 -11 4 -9
11 1 7 -3 22 -9 34 -8 15 -8 18 0 14 18 -12 13 0 -30 64 -22 34 -39 63 -37 65
2 2 21 -23 43 -56 22 -33 45 -65 52 -71 7 -6 13 -15 13 -20 0 -6 -8 -4 -17 3
-11 9 -10 3 6 -18 12 -18 25 -33 28 -33 3 0 0 7 -7 15 -7 9 -11 18 -8 20 9 9
30 -23 33 -50 1 -15 11 -34 20 -43 18 -16 18 -16 2 10 -26 43 -19 47 14 8 19
-22 28 -28 23 -15 -6 20 20 -8 147 -154 35 -41 71 -77 79 -79 8 -3 -5 17 -30
45 -111 123 -216 247 -229 270 -9 19 -15 22 -21 13 -5 -8 -31 22 -79 93 -39
58 -75 108 -81 112 -5 3 -35 45 -66 93 -96 148 -106 162 -114 157 -4 -3 -22
28 -40 69 l-32 73 -117 7 c-64 4 -144 13 -179 21 -75 18 -101 18 -165 0z m693
-435 c6 -11 8 -20 6 -20 -3 0 -10 9 -16 20 -6 11 -8 20 -6 20 3 0 10 -9 16
-20z m222 -255 c5 -11 -2 -6 -16 10 -14 17 -25 35 -25 40 0 11 25 -20 41 -50z
m-1103 -1479 c18 -26 30 -50 26 -54 -7 -8 -39 29 -69 79 -29 49 3 31 43 -25z"/>
<path d="M1516 2374 c17 -41 74 -144 79 -144 2 0 -9 28 -24 63 -15 34 -33 74
-39 90 -6 15 -16 27 -21 27 -6 0 -3 -16 5 -36z"/>
<path d="M7890 2390 c-14 -11 -20 -20 -14 -20 6 0 19 9 29 20 23 25 17 25 -15
0z"/>
<path d="M1551 2385 c0 -11 9 -36 20 -55 15 -26 18 -29 13 -10 -4 14 -12 39
-19 55 -10 23 -13 25 -14 10z"/>
<path d="M7800 2318 c-36 -22 -79 -45 -97 -50 -39 -11 -124 -58 -104 -58 7 0
36 12 65 26 39 20 46 21 31 7 -11 -11 -29 -25 -40 -31 -19 -11 -19 -11 4 -12
32 0 105 48 165 110 27 27 47 50 45 50 -2 0 -33 -19 -69 -42z"/>
<path d="M7347 2257 c32 -9 67 -11 90 -7 l38 8 -41 1 c-23 0 -63 3 -90 6 l-49
5 52 -13z"/>
<path d="M6969 1923 c-13 -16 -12 -17 4 -4 16 13 21 21 13 21 -2 0 -10 -8 -17
-17z"/>
<path d="M6198 1883 c6 -2 18 -2 25 0 6 3 1 5 -13 5 -14 0 -19 -2 -12 -5z"/>
<path d="M3684 1823 c28 -29 52 -50 55 -48 2 3 2 6 0 8 -2 1 -27 22 -54 47
l-50 45 49 -52z"/>
<path d="M5248 1810 c12 -5 60 -12 105 -14 72 -4 75 -4 22 3 -33 4 -80 11
-105 15 -34 4 -39 4 -22 -4z"/>
<path d="M5513 1803 c9 -2 23 -2 30 0 6 3 -1 5 -18 5 -16 0 -22 -2 -12 -5z"/>
<path d="M5633 1793 c9 -2 23 -2 30 0 6 3 -1 5 -18 5 -16 0 -22 -2 -12 -5z"/>
<path d="M2610 1781 c0 -6 4 -13 10 -16 6 -3 7 1 4 9 -7 18 -14 21 -14 7z"/>
<path d="M7079 1603 c-13 -16 -12 -17 4 -4 16 13 21 21 13 21 -2 0 -10 -8 -17
-17z"/>
<path d="M6980 1534 c-41 -30 -105 -74 -142 -96 -38 -22 -68 -42 -68 -45 0
-12 203 119 265 171 51 43 24 28 -55 -30z"/>
<path d="M2040 1475 c13 -14 26 -25 28 -25 3 0 -5 11 -18 25 -13 14 -26 25
-28 25 -3 0 5 -11 18 -25z"/>
<path d="M6680 1350 c-41 -21 -72 -39 -67 -40 10 0 147 69 147 75 0 7 3 8 -80
-35z"/>
<path d="M6550 1290 c-8 -5 -10 -10 -5 -10 6 0 17 5 25 10 8 5 11 10 5 10 -5
0 -17 -5 -25 -10z"/>
<path d="M3110 1266 c0 -2 8 -10 18 -17 15 -13 16 -12 3 4 -13 16 -21 21 -21
13z"/>
<path d="M3210 1167 c0 -3 30 -36 66 -73 65 -68 74 -70 27 -7 -22 29 -93 90
-93 80z"/>
<path d="M2990 1157 c0 -36 65 -100 112 -109 7 -2 19 -9 26 -16 8 -7 18 -10
23 -7 7 5 143 -91 188 -133 31 -29 122 -95 126 -91 4 5 -182 199 -191 199 -2
0 -33 18 -68 39 -36 21 -91 51 -123 66 -32 15 -66 34 -75 43 -10 8 -18 12 -18
9z"/>
<path d="M5930 1124 c-8 -1 -72 -6 -142 -9 -99 -6 -128 -10 -132 -22 -5 -13 6
-14 86 -8 67 4 89 3 78 -4 -11 -8 -6 -10 20 -5 86 14 177 33 200 43 21 8 15
10 -35 9 -33 0 -67 -2 -75 -4z m-47 -31 c-7 -2 -19 -2 -25 0 -7 3 -2 5 12 5
14 0 19 -2 13 -5z"/>
<path d="M8190 874 c-156 -108 -274 -210 -405 -348 -68 -72 -136 -147 -151
-166 -51 -64 -118 -130 -134 -130 -25 -1 -54 -54 -103 -190 -5 -13 -6 -12 -6
1 -1 9 5 34 12 55 8 22 17 52 21 68 6 26 6 28 -9 16 -9 -7 -25 -34 -37 -59
-11 -25 -29 -63 -39 -84 l-19 -37 752 1 c414 1 740 4 723 6 -16 3 -43 17 -58
31 -37 35 -137 191 -175 272 -95 202 -163 369 -222 538 -18 50 -38 92 -44 92
-6 -1 -54 -30 -106 -66z"/>
<path d="M3250 913 c0 -5 41 -45 92 -89 131 -113 178 -156 178 -167 0 -5 20
-27 45 -49 25 -22 45 -45 45 -51 0 -6 -7 -1 -16 11 -8 12 -19 20 -24 17 -4 -3
-19 7 -32 22 -34 40 -114 103 -122 96 -3 -4 1 -15 11 -25 28 -31 7 -31 -28 0
-78 68 -329 189 -329 159 0 -6 7 -49 15 -94 11 -64 12 -102 5 -170 -21 -183
-29 -204 -53 -126 -15 47 -15 46 -16 -94 -1 -129 -9 -171 -26 -143 -13 21 -25
9 -37 -35 -9 -34 -15 -42 -25 -33 -15 12 -17 7 -32 -63 -6 -25 -13 -53 -17
-62 -6 -16 25 -17 408 -17 l414 0 -12 73 c-7 39 -26 123 -43 185 -35 126 -40
215 -15 250 8 12 20 19 26 16 27 -17 108 -238 108 -298 1 -23 8 -59 16 -81 9
-22 20 -64 26 -92 l10 -53 44 0 c24 0 44 3 44 6 0 22 -45 175 -67 226 -48 113
-181 367 -213 409 -18 22 -38 38 -46 35 -8 -3 -11 0 -8 8 3 8 0 17 -7 22 -8 4
-10 3 -5 -4 13 -21 -57 26 -137 90 -109 89 -140 113 -147 113 -3 0 -11 4 -17
8 -7 5 -13 4 -13 0z"/>
<path d="M632 435 c6 -14 13 -24 14 -22 6 6 -9 47 -17 47 -5 0 -3 -11 3 -25z"/>
<path d="M1 108 c-1 -107 -1 -108 23 -108 l23 0 -13 78 c-24 141 -32 149 -33
30z"/>
<path d="M87 114 c-3 -4 -2 -15 3 -25 6 -9 11 -34 12 -53 3 -35 4 -36 45 -36
l42 0 -20 35 c-12 19 -25 35 -31 35 -5 0 -7 4 -4 8 3 5 -4 16 -15 25 -22 19
-23 20 -32 11z"/>
</g>
</svg>
